<svg width="30" height="30" viewBox="0 0 30 30" xmlns="http://www.w3.org/2000/svg">
    <path d="M15.002 17.956a2.955 2.955 0 1 0 0-5.91 2.955 2.955 0 0 0 0 5.91z"/>
    <path d="M26.851 14.627C26.635 14.397 21.486 9 15 9S3.364 14.398 3.147 14.627a.547.547 0 0 0 0 .747c.216.23 5.365 5.63 11.85 5.63 6.488 0 11.638-5.4 11.853-5.63a.544.544 0 0 0 0-.747zM15 19.57A4.573 4.573 0 0 1 10.433 15 4.574 4.574 0 0 1 15 10.431c2.518 0 4.57 2.05 4.57 4.57A4.577 4.577 0 0 1 15 19.57zm-3.622-8.883C10.144 11.726 9.341 13.263 9.341 15c0 1.736.803 3.274 2.037 4.314-3.415-1.098-6.097-3.41-7.055-4.314.958-.904 3.64-3.215 7.055-4.313zm7.245 8.626c1.234-1.04 2.038-2.578 2.038-4.313 0-1.735-.804-3.272-2.039-4.311 3.415 1.098 6.095 3.406 7.054 4.311-.959.904-3.639 3.213-7.053 4.313z"/>
</svg>
