<svg width="60" height="60" viewBox="0 0 60 60" fill="none" xmlns="http://www.w3.org/2000/svg">
<path d="M54.2763 60.0001C54.2762 60.0001 54.2762 60.0001 54.276 60.0001L5.71764 59.9935C5.2616 59.9935 4.82435 59.8079 4.50219 59.4776C4.18003 59.1474 3.99931 58.6996 4 58.233L4.00584 54.2527C4.01741 46.2755 10.3718 39.7856 18.1708 39.7856H41.8349C45.6156 39.7856 49.1767 41.3015 51.8627 44.054C54.5362 46.7938 56.0056 50.4177 56 54.258L55.9941 58.2448C55.9926 59.2146 55.2238 60.0001 54.2763 60.0001Z" fill="#979797"/>
<path d="M51.8627 44.054C49.1769 41.3015 45.6156 39.7856 41.8349 39.7856H30.0029V59.9968L54.2761 60.0001H54.2763C55.2239 60.0001 55.9927 59.2146 55.9942 58.2448L56 54.258C56.0056 50.4177 54.5363 46.7938 51.8627 44.054Z" fill="#808080"/>
<path d="M34.8017 57.0509C34.3064 57.0509 33.8352 56.8321 33.5089 56.4506L30.0029 52.351L26.4969 56.4506C26.1708 56.8321 25.6995 57.0509 25.2042 57.0509C21.0974 57.0509 17.2862 55.4191 14.1827 52.332C11.6406 49.8033 9.67866 46.3409 8.80014 42.8324C8.63167 42.1594 8.86633 41.4478 9.3991 41.017L16.6177 35.1795C16.92 34.935 17.2938 34.8017 17.6792 34.8008L42.2523 34.7466H42.256C42.6425 34.7466 43.0178 34.8799 43.3212 35.1252L50.6067 41.017C51.1394 41.4478 51.3742 42.1594 51.2056 42.8324C49.4366 49.898 43.2339 57.0509 34.8017 57.0509Z" fill="#F6F6F6"/>
<path d="M50.6067 41.017L43.3211 35.1252C43.0178 34.8799 42.6424 34.7466 42.2559 34.7466C42.2547 34.7466 42.2535 34.7466 42.2523 34.7466L30.0029 34.7737V52.3513L33.5089 56.4509C33.8351 56.8323 34.3063 57.0511 34.8016 57.0511C43.2338 57.0511 49.4366 49.8983 51.2056 42.8326C51.3741 42.1592 51.1394 41.4478 50.6067 41.017Z" fill="#F0F0F0"/>
<path fill-rule="evenodd" clip-rule="evenodd" d="M17.054 19.979H42.8634V36.0164H17.054V19.979Z" fill="#E8E8E8"/>
<path fill-rule="evenodd" clip-rule="evenodd" d="M30.0029 19.979H42.8633V36.0164H30.0029V19.979Z" fill="#D8D8D8"/>
<path d="M44.0858 16.8262C43.1371 16.8262 42.368 17.6132 42.368 18.584V24.2091C42.368 28.5739 40.0885 32.7136 36.4191 35.0126C35.1236 32.6135 32.6637 31.1232 29.9993 31.1232C27.3349 31.1232 24.875 32.6135 23.5796 35.0124V35.0126C20.0278 32.7873 17.7784 28.8373 17.6379 24.628V19.1699C17.6379 18.1992 16.8687 17.4121 15.92 17.4121C14.9713 17.4121 14.2021 18.1992 14.2021 19.1699V28.3791C14.2021 33.5512 15.7496 38.593 18.5593 42.5759C21.3724 46.5634 25.3029 49.3064 29.6268 50.2993C29.7507 50.3278 29.8769 50.342 30.003 50.342C30.1292 50.342 30.2553 50.3277 30.3792 50.2993C34.7029 49.3063 38.6334 46.5634 41.4466 42.5759C44.2563 38.593 45.8038 33.5512 45.8038 28.3791V18.584C45.8037 17.6132 45.0345 16.8262 44.0858 16.8262Z" fill="#5D5D5D"/>
<path d="M44.0859 16.8262C43.1372 16.8262 42.368 17.6132 42.368 18.584V24.2091C42.368 28.5739 40.0885 32.7136 36.4192 35.0126C35.1244 32.6145 32.666 31.1246 30.0029 31.1232V50.3421C30.1291 50.3421 30.2552 50.3278 30.3791 50.2995C34.7029 49.3064 38.6334 46.5635 41.4466 42.576C44.2563 38.5931 45.8038 33.5513 45.8038 28.3792V18.584C45.8038 17.6132 45.0346 16.8262 44.0859 16.8262Z" fill="#4F4F4F"/>
<path d="M44.0616 20.3908H15.8865C15.0631 20.3908 14.3554 19.7929 14.1997 18.9655L12.0606 7.6025C11.9422 6.97331 12.1677 6.32807 12.6491 5.91838C13.1307 5.50869 13.792 5.3997 14.3747 5.63349L20.753 8.19313L28.8303 0.473208C29.4904 -0.157736 30.5154 -0.157736 31.1755 0.473208L39.2527 8.19313L45.6307 5.63361C46.2151 5.399 46.8778 5.50939 47.3596 5.92131C47.8411 6.33323 48.0649 6.98105 47.9432 7.61117L45.7468 18.974C45.5876 19.7974 44.8818 20.3908 44.0616 20.3908Z" fill="#DFDFDF"/>
<path d="M47.3597 5.92119C46.8779 5.50927 46.2153 5.39888 45.6308 5.63349L39.2528 8.19301L31.1757 0.473208C30.8456 0.157619 30.4243 0 30.0029 0V20.3908H44.0619C44.8821 20.3908 45.5879 19.7975 45.7471 18.974L47.9434 7.61117C48.0652 6.98105 47.8414 6.33311 47.3597 5.92119Z" fill="#D2D2D2"/>
<path d="M30.003 13.7112C30.9518 13.7112 31.7209 12.9242 31.7209 11.9534C31.7209 10.9826 30.9518 10.1956 30.003 10.1956C29.0543 10.1956 28.2852 10.9826 28.2852 11.9534C28.2852 12.9242 29.0543 13.7112 30.003 13.7112Z" fill="#8D8D8D"/>
<path fill-rule="evenodd" clip-rule="evenodd" d="M30.0029 10.1956V13.7112C30.9491 13.7112 31.7208 12.9215 31.7208 11.9534C31.7208 10.9853 30.9491 10.1956 30.0029 10.1956Z" fill="#606060"/>
</svg>
