<svg width="14" height="14" viewBox="0 0 14 14" xmlns="http://www.w3.org/2000/svg">
    <g clip-path="url(#a)">
        <path d="M13.654.15C13.285.044 4.262-.854 1.094 3.427c-1.404 1.896-1.425 4.496-.07 7.726a16.264 16.264 0 0 0-.89 2.257.456.456 0 1 0 .871.27C3.42 5.87 11.269 2.093 13.676 1.139c.234-.094.547-.822-.022-.988z"/>
        <path d="M2.472 12.13c1.306.548 2.612.829 3.827.829 1.092 0 2.11-.225 2.987-.68 1.766-.916 2.845-2.668 3.12-5.068.282-2.445.631-3.977.923-4.914-2.596 1.197-8.16 4.3-10.857 9.833z"/>
    </g>
    <defs>
        <clipPath id="a">
            <path d="M0 0h14v14H0z"/>
        </clipPath>
    </defs>
</svg>
