<svg width="24" height="24" viewBox="0 0 24 24" xmlns="http://www.w3.org/2000/svg">
    <path d="M2.583 6.604A2.586 2.586 0 0 1 0 4.021a2.59 2.59 0 0 1 2.583-2.587 2.586 2.586 0 0 1 2.583 2.582 2.594 2.594 0 0 1-2.583 2.588zm0-3.97c-.765 0-1.382.623-1.382 1.382 0 .76.622 1.382 1.382 1.382.76 0 1.382-.622 1.382-1.382 0-.76-.623-1.382-1.382-1.382zM2.583 14.583A2.586 2.586 0 0 1 0 12a2.583 2.583 0 1 1 2.583 2.583zm0-3.965c-.765 0-1.382.622-1.382 1.382 0 .76.622 1.382 1.382 1.382.76 0 1.382-.617 1.382-1.382 0-.765-.623-1.382-1.382-1.382zM2.583 22.566A2.586 2.586 0 0 1 0 19.984 2.586 2.586 0 0 1 2.583 17.4a2.59 2.59 0 0 1 2.583 2.583 2.59 2.59 0 0 1-2.583 2.582zm0-3.97a1.384 1.384 0 0 0 0 2.764c.76 0 1.382-.622 1.382-1.381 0-.76-.623-1.382-1.382-1.382zM23.397 4.62H8.621a.602.602 0 1 1 0-1.206h14.776a.602.602 0 1 1 0 1.205zM23.397 12.603H8.621a.602.602 0 1 1 0-1.206h14.776a.602.602 0 1 1 0 1.206zM23.397 20.582H8.621a.602.602 0 1 1 0-1.206h14.776a.602.602 0 1 1 0 1.206z"/>
</svg>
