<svg width="20" height="20" viewBox="0 0 20 20" xmlns="http://www.w3.org/2000/svg">
    <path d="M10.25 14.163h9.188a.556.556 0 0 0 .562-.555.556.556 0 0 0-.562-.555H10.25a2.85 2.85 0 0 0-2.799-2.26 2.85 2.85 0 0 0-2.799 2.26H.562a.556.556 0 0 0-.562.555c0 .308.25.555.562.555h4.09a2.85 2.85 0 0 0 2.8 2.26 2.85 2.85 0 0 0 2.798-2.26zm-4.527-.555c0-.941.774-1.706 1.728-1.706s1.729.765 1.729 1.706-.775 1.705-1.729 1.705a1.718 1.718 0 0 1-1.728-1.705zM14.965 7.37h4.473A.556.556 0 0 0 20 6.815a.556.556 0 0 0-.562-.555h-4.473a2.85 2.85 0 0 0-2.8-2.26 2.85 2.85 0 0 0-2.798 2.26H.562A.556.556 0 0 0 0 6.815c0 .308.25.555.562.555h8.81a2.85 2.85 0 0 0 2.798 2.26 2.845 2.845 0 0 0 2.795-2.26zm-4.528-.555c0-.941.775-1.705 1.729-1.705.954 0 1.728.764 1.728 1.705 0 .941-.774 1.705-1.728 1.705s-1.729-.768-1.729-1.705z"/>
</svg>
