<svg width="18" height="18" viewBox="0 0 18 18" fill="none" xmlns="http://www.w3.org/2000/svg">
<path d="M0.925586 18C0.688483 18 0.451379 17.9098 0.271234 17.7283C-0.0904114 17.3667 -0.0904114 16.7803 0.271234 16.4187L16.4187 0.271234C16.7803 -0.0904114 17.3667 -0.0904114 17.7283 0.271234C18.09 0.63288 18.09 1.2192 17.7283 1.58107L1.58107 17.7283C1.39957 17.9087 1.16246 18 0.925586 18Z" fill="#32325D"/>
<path d="M17.0742 18C16.8371 18 16.6002 17.9098 16.4198 17.7283L0.271234 1.58107C-0.0904114 1.2192 -0.0904114 0.63288 0.271234 0.271234C0.63288 -0.0904114 1.2192 -0.0904114 1.58107 0.271234L17.7283 16.4187C18.09 16.7803 18.09 17.3667 17.7283 17.7283C17.5468 17.9087 17.3099 18 17.0742 18Z" fill="#32325D"/>
</svg>
