<svg width="24" height="24" viewBox="0 0 24 24" fill="none" xmlns="http://www.w3.org/2000/svg">
<path d="M2.58272 6.60405C1.15654 6.60405 -8.44002e-05 5.44252 -8.44002e-05 4.02124C-8.44002e-05 2.59996 1.15654 1.43353 2.58272 1.43353C4.0089 1.43353 5.16553 2.59506 5.16553 4.01634C5.16553 5.43762 4.004 6.60405 2.58272 6.60405ZM2.58272 2.63427C1.81817 2.63427 1.20065 3.25669 1.20065 4.01634C1.20065 4.77599 1.82307 5.39841 2.58272 5.39841C3.34237 5.39841 3.96479 4.77599 3.96479 4.01634C3.96479 3.25669 3.34237 2.63427 2.58272 2.63427Z" fill="#2B2B9F"/>
<path d="M2.58272 14.5828C1.15654 14.5828 -8.44002e-05 13.4213 -8.44002e-05 12C-8.44002e-05 10.5787 1.15654 9.41718 2.58272 9.41718C4.0089 9.41718 5.16553 10.5738 5.16553 12C5.16553 13.4262 4.004 14.5828 2.58272 14.5828ZM2.58272 10.6179C1.81817 10.6179 1.20065 11.2403 1.20065 12C1.20065 12.7596 1.82307 13.3821 2.58272 13.3821C3.34237 13.3821 3.96479 12.7645 3.96479 12C3.96479 11.2354 3.34237 10.6179 2.58272 10.6179Z" fill="#2B2B9F"/>
<path d="M2.58272 22.5664C1.15654 22.5664 -8.44002e-05 21.4049 -8.44002e-05 19.9836C-8.44002e-05 18.5574 1.16144 17.4008 2.58272 17.4008C4.004 17.4008 5.16553 18.5623 5.16553 19.9836C5.16553 21.4049 4.004 22.5664 2.58272 22.5664ZM2.58272 18.5967C1.81817 18.5967 1.20065 19.2191 1.20065 19.9787C1.20065 20.7433 1.82307 21.3608 2.58272 21.3608C3.34237 21.3608 3.96479 20.7384 3.96479 19.9787C3.96479 19.2191 3.34237 18.5967 2.58272 18.5967Z" fill="#2B2B9F"/>
<path d="M23.3972 4.61915H8.62079C8.28753 4.61915 8.01797 4.3496 8.01797 4.01633C8.01797 3.68307 8.28753 3.41351 8.62079 3.41351H23.3972C23.7304 3.41351 24 3.68307 24 4.01633C24 4.3496 23.7304 4.61915 23.3972 4.61915Z" fill="#2B2B9F"/>
<path d="M23.3972 12.6028H8.62079C8.28753 12.6028 8.01797 12.3332 8.01797 12C8.01797 11.6667 8.28753 11.3972 8.62079 11.3972H23.3972C23.7304 11.3972 24 11.6667 24 12C24 12.3332 23.7304 12.6028 23.3972 12.6028Z" fill="#2B2B9F"/>
<path d="M23.3972 20.5816H8.62079C8.28753 20.5816 8.01797 20.3121 8.01797 19.9788C8.01797 19.6455 8.28753 19.376 8.62079 19.376H23.3972C23.7304 19.376 24 19.6455 24 19.9788C24 20.3121 23.7304 20.5816 23.3972 20.5816Z" fill="#2B2B9F"/>
</svg>
