<svg width="20" height="20" viewBox="0 0 20 20" fill="none" xmlns="http://www.w3.org/2000/svg">
<path d="M10.2499 14.1627L19.4377 14.1627C19.7501 14.1627 20 13.9161 20 13.6079C20 13.2997 19.7501 13.0531 19.4377 13.0531L10.2499 13.0531C9.9875 11.7669 8.83382 10.793 7.45106 10.793C6.06831 10.793 4.91462 11.7669 4.65223 13.0531L0.562265 13.0531C0.249895 13.0531 -1.09573e-07 13.2997 -1.23045e-07 13.6079C-1.36517e-07 13.9161 0.249895 14.1627 0.562265 14.1627L4.65223 14.1627C4.91462 15.4489 6.06831 16.4228 7.45106 16.4228C8.82965 16.4228 9.9875 15.453 10.2499 14.1627ZM5.72262 13.6079C5.72262 12.6669 6.49729 11.9025 7.45106 11.9025C8.40483 11.9025 9.17951 12.6669 9.17951 13.6079C9.17951 14.549 8.40483 15.3133 7.45106 15.3133C6.49729 15.3133 5.72262 14.549 5.72262 13.6079Z" fill="#32325D"/>
<path d="M14.9646 7.36971L19.4377 7.36971C19.7501 7.36971 20 7.12314 20 6.81494C20 6.50673 19.7501 6.26017 19.4377 6.26017L14.9646 6.26017C14.7022 4.97393 13.5485 4 12.1658 4C10.783 4 9.62932 4.97393 9.36693 6.26017L0.562265 6.26017C0.249895 6.26017 -1.09573e-07 6.50673 -1.23045e-07 6.81494C-1.36517e-07 7.12314 0.249895 7.36971 0.562265 7.36971L9.3711 7.36971C9.63349 8.65595 10.7872 9.62988 12.1699 9.62988C13.5527 9.62988 14.7022 8.65595 14.9646 7.36971ZM10.4373 6.81494C10.4373 5.87389 11.212 5.10954 12.1658 5.10954C13.1195 5.10954 13.8942 5.87389 13.8942 6.81494C13.8942 7.75599 13.1195 8.52034 12.1658 8.52034C11.212 8.52034 10.4373 7.75188 10.4373 6.81494Z" fill="#32325D"/>
</svg>
