<svg width="24" height="24" viewBox="0 0 24 24" fill="none" xmlns="http://www.w3.org/2000/svg">
<path d="M23.9976 1.57765C23.9976 0.709942 23.2876 0 22.4199 0H18.6582C17.7905 0 17.0806 0.709942 17.0806 1.57765V5.33443C17.0806 6.20214 17.7905 6.91208 18.6582 6.91208H22.415C23.2827 6.91208 23.9926 6.20214 23.9926 5.33443V1.57765H23.9976ZM22.7897 5.33936C22.7897 5.5415 22.6221 5.70912 22.4199 5.70912H18.6582C18.4561 5.70912 18.2885 5.5415 18.2885 5.33936V1.57765C18.2885 1.37551 18.4561 1.20789 18.6582 1.20789H22.415C22.6171 1.20789 22.7848 1.37551 22.7848 1.57765V5.33936H22.7897Z" fill="#A8A8A8"/>
<path d="M23.9976 10.1216C23.9976 9.25389 23.2876 8.54395 22.4199 8.54395H18.6582C17.7905 8.54395 17.0806 9.25389 17.0806 10.1216V13.8784C17.0806 14.7461 17.7905 15.456 18.6582 15.456H22.415C23.2827 15.456 23.9926 14.7461 23.9926 13.8784V10.1216H23.9976ZM22.7897 13.8784C22.7897 14.0805 22.6221 14.2481 22.4199 14.2481H18.6582C18.4561 14.2481 18.2885 14.0805 18.2885 13.8784V10.1216C18.2885 9.91946 18.4561 9.75183 18.6582 9.75183H22.415C22.6171 9.75183 22.7848 9.91946 22.7848 10.1216V13.8784H22.7897Z" fill="#A8A8A8"/>
<path d="M22.4248 17.083H18.6631C17.7954 17.083 17.0854 17.7929 17.0854 18.6607V22.4174C17.0854 23.2851 17.7954 23.9951 18.6631 23.9951H22.4199C23.2876 23.9951 23.9975 23.2851 23.9975 22.4174V18.6607C24.0025 17.7929 23.2925 17.083 22.4248 17.083ZM22.7946 22.4224C22.7946 22.6245 22.6269 22.7921 22.4248 22.7921H18.6631C18.461 22.7921 18.2933 22.6245 18.2933 22.4224V18.6656C18.2933 18.4635 18.461 18.2958 18.6631 18.2958H22.4199C22.622 18.2958 22.7896 18.4635 22.7896 18.6656V22.4224H22.7946Z" fill="#A8A8A8"/>
<path d="M8.5415 13.8784C8.5415 14.7461 9.25145 15.456 10.1192 15.456H13.8759C14.7436 15.456 15.4536 14.7461 15.4536 13.8784V10.1216C15.4536 9.25389 14.7436 8.54395 13.8759 8.54395H10.1192C9.25145 8.54395 8.5415 9.25389 8.5415 10.1216V13.8784ZM9.74939 10.1216C9.74939 9.91946 9.91702 9.75183 10.1192 9.75183H13.8759C14.0781 9.75183 14.2457 9.91946 14.2457 10.1216V13.8784C14.2457 14.0805 14.0781 14.2481 13.8759 14.2481H10.1192C9.91702 14.2481 9.74939 14.0805 9.74939 13.8784V10.1216Z" fill="#A8A8A8"/>
<path d="M8.5415 22.4223C8.5415 23.29 9.25145 24 10.1192 24H13.8759C14.7436 24 15.4536 23.29 15.4536 22.4223V18.6655C15.4536 17.7978 14.7436 17.0879 13.8759 17.0879H10.1192C9.25145 17.0879 8.5415 17.7978 8.5415 18.6655V22.4223ZM9.74939 18.6606C9.74939 18.4585 9.91702 18.2908 10.1192 18.2908H13.8759C14.0781 18.2908 14.2457 18.4585 14.2457 18.6606V22.4174C14.2457 22.6195 14.0781 22.7871 13.8759 22.7871H10.1192C9.91702 22.7871 9.74939 22.6195 9.74939 22.4174V18.6606Z" fill="#A8A8A8"/>
<path d="M0.00244141 13.8784C0.00244141 14.7461 0.712384 15.456 1.58009 15.456H5.33687C6.20458 15.456 6.91453 14.7461 6.91453 13.8784V10.1216C6.91453 9.25389 6.20458 8.54395 5.33687 8.54395H1.58009C0.712384 8.54395 0.00244141 9.25389 0.00244141 10.1216V13.8784ZM1.21033 10.1216C1.21033 9.91946 1.37796 9.75183 1.58009 9.75183H5.33687C5.53901 9.75183 5.70664 9.91946 5.70664 10.1216V13.8784C5.70664 14.0805 5.53901 14.2481 5.33687 14.2481H1.58009C1.37796 14.2481 1.21033 14.0805 1.21033 13.8784V10.1216Z" fill="#A8A8A8"/>
<path d="M0.00244141 22.4223C0.00244141 23.29 0.712384 24 1.58009 24H5.33687C6.20458 24 6.91453 23.29 6.91453 22.4223V18.6655C6.91453 17.7978 6.20458 17.0879 5.33687 17.0879H1.58009C0.712384 17.0879 0.00244141 17.7978 0.00244141 18.6655V22.4223ZM1.21033 18.6606C1.21033 18.4585 1.37796 18.2908 1.58009 18.2908H5.33687C5.53901 18.2908 5.70664 18.4585 5.70664 18.6606V22.4174C5.70664 22.6195 5.53901 22.7871 5.33687 22.7871H1.58009C1.37796 22.7871 1.21033 22.6195 1.21033 22.4174V18.6606Z" fill="#A8A8A8"/>
<path d="M8.5415 1.57765V5.33443C8.5415 6.20214 9.25145 6.91208 10.1192 6.91208H13.8759C14.7436 6.91208 15.4536 6.20214 15.4536 5.33443V1.57765C15.4536 0.709942 14.7436 0 13.8759 0H10.1192C9.24652 0 8.5415 0.709942 8.5415 1.57765ZM9.74939 1.57765C9.74939 1.37551 9.91702 1.20789 10.1192 1.20789H13.8759C14.0781 1.20789 14.2457 1.37551 14.2457 1.57765V5.33443C14.2457 5.53657 14.0781 5.70419 13.8759 5.70419H10.1192C9.91702 5.70419 9.74939 5.53657 9.74939 5.33443V1.57765Z" fill="#A8A8A8"/>
<path d="M1.58009 6.91701H5.33687C6.20458 6.91701 6.91453 6.20707 6.91453 5.33936V1.57765C6.91453 0.709942 6.20458 0 5.33687 0H1.58009C0.712384 0 0.00244141 0.709942 0.00244141 1.57765V5.33443C0.00244141 6.20707 0.712384 6.91701 1.58009 6.91701ZM1.21033 1.57765C1.21033 1.37551 1.37796 1.20789 1.58009 1.20789H5.33687C5.53901 1.20789 5.70664 1.37551 5.70664 1.57765V5.33443C5.70664 5.53657 5.53901 5.70419 5.33687 5.70419H1.58009C1.37796 5.70419 1.21033 5.53657 1.21033 5.33443V1.57765Z" fill="#A8A8A8"/>
</svg>
