<svg width="300" height="158" viewBox="0 0 300 158" fill="none" xmlns="http://www.w3.org/2000/svg">
<path fill-rule="evenodd" clip-rule="evenodd" d="M152.671 67.4046C150.13 66.1274 149.069 62.9329 145.21 63.7088C142.591 64.2354 136.639 64.3895 134.721 66.3176C131.87 69.1837 125.017 80.9659 126.503 85.4491C127.109 87.2754 128.433 89.3287 129.207 90.8842C130.186 92.8539 136.726 96.8796 139.371 95.9932C141.094 95.4158 144.119 93.4882 146.075 94.4713C147.143 95.0083 147.6 96.5478 148.346 97.2976C150.175 99.1362 149.035 103.574 150.184 105.885C150.445 106.409 151.128 108.445 150.833 109.037C149.899 110.915 148.596 112.793 149.103 115.342C149.669 118.191 152.066 120.5 152.563 123.495C152.841 125.173 153.689 131.561 155.158 132.3C162.611 136.046 168.941 126.27 172.783 122.408C174.079 121.105 172.061 116.794 172.892 115.125C173.967 112.962 176.181 111.4 176.892 109.255C177.081 108.685 174.907 106.351 174.514 105.559C173.453 103.427 179.959 97.2976 180.569 97.2976C182.346 97.1889 184.913 88.1856 184.137 87.4057C182.523 85.7827 177.704 88.4388 175.811 86.5361C171.889 82.5928 170.136 71.809 166.944 68.6003C166.32 67.9724 161.253 67.8256 160.24 67.622C158.242 67.622 154.446 68.2967 152.671 67.4046Z" fill="#E1E1E1"/>
<path fill-rule="evenodd" clip-rule="evenodd" d="M182.845 110.883C178.285 112.46 177.492 122.02 180.532 125.172C180.862 125.514 181.976 121.086 182.214 120.591C183.528 117.866 185.771 113.159 182.845 110.883Z" fill="#E1E1E1"/>
<path fill-rule="evenodd" clip-rule="evenodd" d="M150.842 8.26956C150.66 9.00036 149.878 11.6842 150.202 12.3344C150.644 13.2201 152.779 12.2898 153.508 12.6553C158.071 14.9438 165.28 7.94865 158.413 7.94865C157.383 7.94865 156.352 7.94865 155.321 7.94865C153.77 7.94865 152.42 8.0435 150.842 8.26956Z" fill="#E1E1E1"/>
<path fill-rule="evenodd" clip-rule="evenodd" d="M192.867 15.1073C191.787 15.8361 190.729 16.4944 189.906 17.328C189.326 17.9144 186.192 21.0085 186.725 21.5475C188.334 23.1769 194.675 17.9405 195.938 16.6618C196.724 15.8664 198.619 16.0579 199.339 15.3293C199.384 15.2831 199.384 14.2651 199.339 14.2189C198.367 13.2353 193.431 14.8972 192.867 15.1073Z" fill="#E1E1E1"/>
<path fill-rule="evenodd" clip-rule="evenodd" d="M123.825 29.0125C124.959 29.0125 126.094 29.0125 127.228 29.0125C133.48 29.0125 129.607 32.2814 127.973 33.9766C127.321 34.6524 118.742 33.6222 121.166 31.1084C121.859 30.3887 122.582 29.9221 123.825 29.0125Z" fill="#E1E1E1"/>
<path fill-rule="evenodd" clip-rule="evenodd" d="M138.542 37.1663C134.565 35.8754 137.997 41.0282 137.997 42.7852C137.997 43.5261 136.555 45.9394 137.126 46.4958C137.233 46.5998 143.53 44.4613 141.917 42.8912C140.62 41.6279 139.354 39.0439 138.542 37.1663Z" fill="#E1E1E1"/>
<path fill-rule="evenodd" clip-rule="evenodd" d="M134.481 43.6941C133.79 41.3829 132.385 44.8706 132.693 46.2417C133.088 48.003 135.219 47.8077 134.481 43.6941Z" fill="#E1E1E1"/>
<path fill-rule="evenodd" clip-rule="evenodd" d="M138.284 49.6714C137.962 50.9564 138.84 54.7444 138.067 55.5167C135.839 57.7427 133.797 52.9902 132.433 58.4393C131.1 63.7679 137.551 64.3678 140.451 61.4702C142.473 59.4505 139.477 56.5988 144.352 54.9754C147.086 54.0648 148.71 56.6434 150.853 57.3569C153.153 58.1229 154.216 56.276 155.837 56.8156C158.604 57.7373 161.126 60.2354 164.071 58.7641C165.465 58.0678 164.248 54.9166 165.697 54.4342C166.859 54.0471 170.586 54.515 171.114 53.46C172.453 50.7853 164.936 49.8901 166.455 48.3724C168.572 46.2577 172.53 44.2447 174.039 41.2281C175.315 38.6801 174.633 35.6088 175.34 32.7849C175.577 31.8349 176.252 29.1959 175.773 28.2386C174.962 26.6173 170.086 25.5462 168.297 25.0994C162.661 23.6918 158.974 21.5837 153.02 24.5582C151.733 25.201 150.631 30.0853 149.661 31.3777C147.594 34.1311 144 33.9226 146.194 38.3055C146.415 38.7473 146.073 39.8092 146.41 40.1457C147.348 41.0827 149.507 39.0182 149.769 39.2797C150.846 40.3555 148.287 41.3364 151.503 41.3364C152.441 41.3364 154.239 41.6338 154.753 41.1199C155.107 40.7667 155.21 38.7995 155.512 38.1972C155.715 37.7919 157.352 37.2204 156.92 36.3571C156.334 35.1859 155.446 34.3446 155.837 32.7849C156.03 32.0106 158.995 28.9041 160.171 30.0788C161.561 31.4682 157.752 33.2223 158.329 34.9499C158.855 36.5261 162.392 35.7602 161.904 38.1972C160.878 43.3237 151.197 43.1125 148.035 44.692C147.48 44.9697 145.38 44.5305 145.11 44.8003C144.511 45.3991 145.099 47.2033 144.677 48.0477C144.598 48.2053 139.378 49.6167 138.284 49.6714Z" fill="#E1E1E1"/>
<path fill-rule="evenodd" clip-rule="evenodd" d="M174.896 44.4047C173.945 46.3135 170.118 46.4474 169.288 48.1136C168.984 48.724 171.284 49.8604 171.582 50.1599C172.954 51.5368 176.67 56.1997 175.66 59.2405C175.139 60.8086 162.447 59.194 164.19 62.6936C165.546 65.4147 170.165 63.0622 171.71 64.612C172.839 65.746 170.325 71.1516 171.582 72.4136C176.262 77.1105 174.098 87.5885 183.434 85.7147C187.247 84.9496 188.545 83.3998 190.954 80.9826C192.641 79.2895 191.348 73.0145 196.434 74.7157C204.032 77.2574 202.935 80.9848 205.992 87.1215C206.71 88.562 206.463 90.9766 207.495 91.9729C208.526 92.9691 210.437 84.9789 211.09 83.6684C212.73 80.378 215.681 79.3168 218.227 76.7621C218.403 76.5853 218.892 76.9178 218.992 77.0178C221.099 79.1323 220.57 82.9503 222.56 84.9473C224.918 87.3139 228.854 87.2989 231.099 89.5515C231.951 89.6794 232.714 91.0433 233.648 90.5747C233.699 90.5489 233.648 89.6849 233.648 89.6794C233.648 87.144 231.469 83.1826 232.628 80.8547C233.315 79.4764 235.442 79.5263 236.707 78.6805C240.273 76.2947 243.188 73.4553 245.883 70.751C247.735 68.8917 245.575 63.0245 244.226 61.6705C244.179 61.6234 243.765 60.8544 243.971 60.6473C246.007 58.6037 249.994 64.0671 250.853 63.2052C251.774 62.2815 250.195 60.1922 251.618 59.2405C253.794 57.7848 256.939 57.4814 258.755 55.6594C259.795 54.615 260.139 51.8953 261.558 51.1831C262.341 50.7902 264.06 50.5907 264.745 49.9041C266.753 47.8884 261.746 45.6755 261.049 44.2768C259.734 41.638 262.745 39.9019 264.617 38.6494C267.252 36.8865 269.869 38.3551 272.774 37.6262C273.812 37.3659 280.302 34.9671 280.548 35.7078C281.159 37.5469 277.951 38.0783 276.852 38.9052C274.282 40.8395 273.89 44.7575 276.215 47.0905C276.907 47.7847 280.902 41.3822 281.313 40.6957C281.924 39.6728 282.969 38.4686 282.969 37.3705C282.969 37.154 283 36.9714 283.224 36.8589C285.561 35.6866 298.825 29.7717 299.665 28.9294C300.55 28.0409 298.061 25.1676 297.371 25.8599C295.938 27.2979 288.795 26.6851 286.92 26.3715C278.865 25.0242 271.112 22.7384 263.088 21.1278C255.861 19.6773 248.832 18.442 241.422 18.442C240.678 18.442 234.471 19.0716 234.158 18.442C233.604 17.3307 237.595 16.6397 236.962 14.7331C236.489 13.3118 229.975 11.9118 228.423 12.431C221.431 14.7697 214.39 19.2094 206.63 19.2094C204.502 19.2094 201.013 17.9988 199.365 18.8257C196.748 20.1389 195.303 22.1882 191.973 23.302C186.51 25.1297 181.73 23.7336 177.827 27.6505C179.365 33.8228 177.152 39.8753 174.896 44.4047Z" fill="#E1E1E1"/>
<path fill-rule="evenodd" clip-rule="evenodd" d="M225.521 6.90786C224.423 6.55726 223.088 3.30846 221.441 4.09747C220.453 4.57091 222.964 9.86922 223.863 10.0848C227.556 10.9697 229.151 9.39312 225.521 6.90786Z" fill="#E1E1E1"/>
<path fill-rule="evenodd" clip-rule="evenodd" d="M265.697 55.2429C262.624 56.2769 261.751 60.036 260.539 62.4819C259.377 64.8277 256.474 65.5501 254.501 66.5459C253.821 66.8893 254.35 68.6921 254.879 68.9589C256.674 69.8654 257.962 67.3389 259.281 66.6729C265.234 63.6678 264.58 61.6321 265.697 55.2429Z" fill="#E1E1E1"/>
<path fill-rule="evenodd" clip-rule="evenodd" d="M228.096 91.927C225.73 88.3915 225.401 96.1483 225.658 97.4255C226.23 100.274 228.24 106.029 231.691 106.888C232.783 107.16 234.581 107.177 235.541 107.655C236.164 107.965 239.101 109.735 239.649 109.19C241.354 107.491 233.165 104.265 232.461 103.563C228.295 99.4138 234.972 96.6358 228.096 91.927Z" fill="#E1E1E1"/>
<path fill-rule="evenodd" clip-rule="evenodd" d="M242.457 92.6015C240.423 92.6015 239.523 95.1927 238.717 96.771C238.266 97.6563 236.712 98.2303 236.138 98.7925C235.086 99.8232 237.995 102.924 238.588 103.215C239.49 103.656 240.47 102.709 241.297 102.709C241.958 102.709 244.94 103.183 245.294 102.836C246.081 102.065 243.489 98.3326 243.489 97.2763C243.489 94.9203 243.84 95.1424 242.457 92.6015Z" fill="#E1E1E1"/>
<path fill-rule="evenodd" clip-rule="evenodd" d="M262.528 102.395C261.644 101.737 254.97 99.4958 256.915 102.395C258.196 104.305 263.999 106.106 265.972 107.086C266.483 107.34 269.255 110.163 269.799 109.622C271.554 107.878 264.087 102.76 262.528 102.395Z" fill="#E1E1E1"/>
<path fill-rule="evenodd" clip-rule="evenodd" d="M252.124 112.081C249.783 117.966 241.312 116.623 238.819 121.638C238.234 122.813 238.312 124.741 238.312 126.098C238.312 127.308 238.192 128.542 238.565 129.666C241.965 139.924 249.686 127.11 255.292 128.52C259.355 129.541 264.414 138.779 269.359 136.293C271.793 135.069 271.055 131.636 271.64 129.284C271.97 127.956 274.619 125.209 273.921 123.804C272.774 121.499 268.956 120.829 267.711 118.325C265.948 114.778 265.294 111.439 261.502 109.532C259.311 108.43 254.193 111.469 252.124 112.081Z" fill="#E1E1E1"/>
<path fill-rule="evenodd" clip-rule="evenodd" d="M268.079 139.498C262.817 139.498 266.321 146.652 268.079 139.498V139.498Z" fill="#E1E1E1"/>
<path fill-rule="evenodd" clip-rule="evenodd" d="M294.69 138.194C293.636 137.849 292.98 134.934 291.559 135.631C290.815 135.997 281.693 149.988 286.602 148.059C289.09 147.082 289.087 143.742 291.298 142.294C292.822 141.296 293.664 139.806 294.69 138.194Z" fill="#E1E1E1"/>
<path fill-rule="evenodd" clip-rule="evenodd" d="M296.192 125.998C294.892 125.998 292.984 125.736 293.627 127.659C293.777 128.106 296.742 131.583 297.219 131.108C298.108 130.223 296.362 126.336 296.192 125.998Z" fill="#E1E1E1"/>
<path fill-rule="evenodd" clip-rule="evenodd" d="M82.5142 87.4369C81.0467 87.4369 77.9449 87.3325 77.3155 88.6016C76.8681 89.5038 77.2886 92.8993 76.7379 93.4546C74.7097 95.4993 73.2076 98.8907 72.3093 101.608C71.9503 102.693 75.3311 113.972 75.9677 114.613C76.9843 115.638 78.9476 116.065 80.0111 117.137C81.4282 118.566 80.8441 125.683 80.2037 127.619C79.3848 130.096 80.5609 133.693 79.4335 135.966C76.1768 142.533 76.4166 154.537 82.7068 157.708C84.4579 158.59 83.4769 151.129 83.4769 150.137C83.4769 145.7 85.4619 142.312 88.098 139.655C90.3555 137.379 95.7965 136.167 97.3402 133.055C98.4497 130.818 100.413 124.327 101.769 122.961C103.531 121.184 106.098 120.925 107.545 119.466C108.58 118.423 106.964 114.811 107.93 113.837C109.255 112.501 113.284 109.102 111.589 105.684C109.866 102.211 106.196 104.712 103.694 102.19C99.3521 97.8123 94.9513 91.668 89.6384 88.9898C87.5476 87.9359 84.9496 88.553 82.5142 87.4369Z" fill="#2B2B9F"/>
<path fill-rule="evenodd" clip-rule="evenodd" d="M93.0427 1.14131C93.0427 6.14565 81.7974 10.2927 83.5975 13.9046C84.6627 16.0419 88.7014 13.2235 90.1513 14.6781C92.6398 17.1747 92.5533 21.9224 94.5847 23.9605C95.4694 24.848 97.8197 23.4896 98.6327 25.1208C100.519 28.9054 95.4236 31.3771 102.488 38.4642C103.156 39.1345 104.633 35.7074 104.801 35.37C105.741 33.483 108.086 30.4348 109.813 29.5686C113.217 27.8611 119.677 25.8608 121.956 23.5737C124.689 20.8326 122.536 13.9016 124.077 10.8104C124.849 9.26051 130.103 5.8841 128.896 3.4619C127.734 1.13132 121.993 2.74582 119.451 2.10822C111.664 0.155257 100.795 -0.979852 93.0427 1.14131Z" fill="#E1E1E1"/>
<path fill-rule="evenodd" clip-rule="evenodd" d="M58.5333 7.2092C57.9242 5.67893 57.3839 4.32151 57.3839 3.67483C59.4369 3.11602 62.0734 3.3528 64.7017 3.58885C67.8197 3.86887 70.9262 4.14787 73.0334 3.09635C73.9998 2.61405 76.8601 1.74658 77.8634 1.74658C78.3624 1.74658 79.0686 1.55422 79.846 1.34247C81.4825 0.896734 83.4345 0.365068 84.4323 1.36093C84.8213 1.74912 84.1412 2.41731 83.8158 2.73698C83.7324 2.81893 83.6723 2.87797 83.6595 2.90353C82.8937 4.43209 81.8261 5.98415 80.759 7.5355C79.6928 9.08545 78.6271 10.6347 77.8634 12.1591C77.5149 12.8547 76.5746 13.102 75.7329 13.3234C74.9163 13.5382 74.1926 13.7285 74.1926 14.2802C74.1926 14.6691 74.2273 15.1209 74.3858 15.4371C75.7793 18.2187 78.5749 20.0414 81.3388 21.8434C83.0822 22.98 84.8129 24.1084 86.1711 25.464C86.4234 25.7158 86.0783 26.8063 85.9779 27.0066C84.001 30.9528 85.4875 36.0546 86.9439 38.9618C87.5781 40.2276 89.2095 41.1991 90.8031 42.1481C91.9019 42.8024 92.9826 43.4461 93.706 44.168C94.1743 44.6353 94.0863 45.516 93.9984 46.3947C93.911 47.2693 93.8238 48.142 94.2857 48.603C94.3544 48.6716 94.4845 48.7754 94.6486 48.9062C95.4099 49.5133 96.9037 50.7045 96.4109 51.6882C96.2281 52.0531 95.8431 52.0739 95.4449 52.0739C92.1705 52.0739 92.0518 51.3475 91.83 49.991C91.732 49.3916 91.6139 48.669 91.1944 47.8317C90.8166 47.0776 85.5902 48.0258 85.2051 48.4102C84.3581 49.2556 85.4317 49.9582 86.628 50.7411C87.9101 51.5802 89.333 52.5114 88.6828 53.8093C88.0993 54.9738 86.8306 54.7136 85.4728 54.4351C83.9104 54.1146 82.2302 53.77 81.3411 55.5447C80.9232 56.3788 80.5125 57.2951 80.0885 58.241C78.8545 60.9941 77.508 63.998 75.545 65.9572C75.2326 66.269 74.7037 66.2465 74.1618 66.2235C73.5925 66.1992 73.009 66.1744 72.6469 66.5357C71.9135 67.2677 72.33 68.8561 72.7485 70.4527C73.1714 72.0656 73.5964 73.6868 72.8402 74.4415C72.4993 74.7817 72.0077 74.1097 71.783 73.8024C71.7361 73.7383 71.7008 73.6901 71.6809 73.6702C70.9479 72.9386 70.5659 72.3511 70.2237 71.8247C69.6361 70.921 69.1659 70.1977 67.2373 69.2353C67.0043 69.119 66.1689 69.6514 65.3689 70.1612C64.8046 70.5208 64.2579 70.8692 63.9528 70.9707C62.9364 71.3088 61.998 71.4601 61.1712 71.5933C58.983 71.9459 57.5771 72.1725 57.5771 75.4057C57.5771 77.0994 57.9417 80.4082 59.5092 81.1904C60.8458 81.8574 61.52 80.8155 62.2329 79.7135C62.9641 78.5835 63.736 77.3903 65.3053 77.9124C66.9623 78.4637 66.8141 79.9752 66.6632 81.5143C66.5659 82.5066 66.4675 83.5103 66.8509 84.2756C67.4095 85.3907 68.1628 85.1927 68.947 84.9866C69.6117 84.812 70.2986 84.6314 70.9081 85.2397C71.3779 85.7086 71.045 86.2985 70.7048 86.9014C70.3492 87.5314 69.9857 88.1756 70.5217 88.7106C70.8633 89.0514 71.9068 89.4516 72.996 89.8693C74.6979 90.5219 76.5111 91.2172 75.9314 91.7958C74.3159 93.4081 69.8608 89.826 68.0153 88.342C67.6137 88.0191 67.3356 87.7955 67.2373 87.7464C66.5872 87.4221 62.3573 85.6894 58.7306 84.2039C55.8647 83.03 53.3754 82.0103 53.3267 81.9617C52.1433 80.7807 51.5392 79.0969 50.9149 77.3569C50.2474 75.4963 49.5568 73.5714 48.1102 72.1276C48.091 72.1084 48.0264 72.0265 47.9316 71.9064C47.4926 71.3498 46.4058 69.9722 46.1782 70.1994C45.9163 70.4608 46.1872 71.2877 46.5018 72.2483C46.8892 73.4308 47.343 74.816 46.951 75.5985C46.8151 75.8697 40.4515 71.8804 39.8025 70.585C38.6544 68.2934 37.791 65.5065 36.9397 62.7588C35.662 58.6349 34.4117 54.5994 32.2676 52.4595C31.7222 51.9151 32.2945 51.2119 32.8506 50.5285C33.376 49.8829 33.8869 49.255 33.4268 48.7958C33.0481 48.4179 32.2838 48.404 31.5331 48.3904C30.8084 48.3773 30.0964 48.3644 29.756 48.0245C28.1308 46.4025 26.9817 44.8747 25.9365 43.4849C23.6708 40.4724 21.8931 38.1086 16.8114 36.8407C13.8245 36.0954 10.826 38.4692 8.76728 40.0989C7.63199 40.9977 6.78252 41.6701 6.37844 41.4685C4.97812 40.7697 1.14923 36.8026 0.582362 35.1053C0.277623 34.1928 0.938034 33.7339 1.55275 33.3068C2.13302 32.9036 2.67257 32.5286 2.32119 31.8272C2.17528 31.536 1.96067 31.175 1.72001 30.7703C0.801257 29.2249 -0.497329 27.0407 0.195957 25.6569C0.327994 25.3933 0.421949 24.81 0.52594 24.1644C0.699626 23.0861 0.901307 21.834 1.35517 21.6075C5.22126 19.6783 9.83442 21.0597 14.4411 22.4391C18.352 23.6102 22.2582 24.7799 25.6987 23.9214C26.4945 23.7229 32.9515 17.1499 35.9633 14.084C36.5711 13.4653 37.0385 12.9894 37.2909 12.7376C38.0889 11.9411 41.6178 12.9872 43.3112 13.4892C43.6375 13.5859 43.8956 13.6625 44.053 13.7017C44.6352 13.847 45.2639 14.0171 45.9255 14.1961C50.512 15.437 56.6785 17.1053 59.8956 13.8945C60.825 12.9669 59.578 9.83382 58.5333 7.2092ZM64.7697 33.9533C65.4359 32.9659 66.2827 31.7106 67.2237 31.3972C68.4339 32.338 69.4336 33.2611 70.3928 34.1469C72.1313 35.7524 73.7367 37.2349 76.2217 38.4767C76.4293 38.5804 76.4319 38.413 76.4498 38.4113C76.4631 38.4101 76.4847 38.5001 76.6046 38.8593C76.924 39.8171 75.5513 42.3164 74.7425 43.7891C74.5601 44.1213 74.4064 44.4012 74.3072 44.5995C74.1964 44.821 74.2329 45.4632 74.2739 46.1853C74.3529 47.5758 74.4488 49.2623 73.5414 48.8089C72.1729 48.125 71.5493 46.3978 70.9461 44.7268C70.4961 43.4806 70.0575 42.2656 69.3296 41.5381C68.5245 40.7335 66.4272 40.0991 64.3143 39.4601C61.5702 38.6301 58.8 37.7923 58.8 36.5633C58.8 36.542 58.795 36.5187 58.79 36.4953C58.7799 36.4487 58.7699 36.402 58.8 36.3719C59.2992 35.873 60.2978 35.8021 61.312 35.7301C62.3582 35.6558 63.421 35.5803 63.9691 35.0326C64.1915 34.8103 64.4612 34.4105 64.7697 33.9533Z" fill="#E1E1E1"/>
<path fill-rule="evenodd" clip-rule="evenodd" d="M70.6938 77.4279C73.7485 78.188 73.0866 79.8096 74.7748 81.4901C74.96 81.6744 81.1212 82.33 81.1877 82.2638C82.4375 81.0198 78.185 79.3809 77.8841 78.782C77.5181 78.0534 77.8962 73.8553 77.3011 73.5592C76.5007 73.1608 76.2257 76.3705 75.9408 76.6542C75.5493 77.0438 71.2476 77.2776 70.6938 77.4279Z" fill="#E1E1E1"/>
<path fill-rule="evenodd" clip-rule="evenodd" d="M8.58319 82.6655C7.91153 81.5988 3.90913 77.0055 5.55835 75.2594C6.09415 74.6921 6.60362 75.9658 6.69266 76.06C8.20093 77.657 10.0863 80.6193 8.58319 82.6655Z" fill="#E1E1E1"/>
<path fill-rule="evenodd" clip-rule="evenodd" d="M208.921 93.8878C208.802 93.4322 209.114 92.7028 209.542 92.7028C209.97 92.7028 210.316 94.0264 209.921 94.1816C209.527 94.3368 209.041 94.3434 208.921 93.8878Z" fill="#E1E1E1"/>
</svg>
