<svg width="20" height="20" viewBox="0 0 20 20" xmlns="http://www.w3.org/2000/svg">
    <path d="M16.31 0H5.055a2.533 2.533 0 0 0-2.53 2.517v14.966A2.533 2.533 0 0 0 5.055 20h11.264c.309.005.607-.115.828-.331a1.16 1.16 0 0 0 .329-.81V1.164A1.167 1.167 0 0 0 16.31 0zm-4.995.952h2.798V5.42l-.993-1.583a.476.476 0 0 0-.817 0l-.988 1.576V.952zM3.49 2.517A1.571 1.571 0 0 1 5.053.952h5.31V5.81a.86.86 0 0 0 .593.858c.419.126.795-.146 1.019-.503l.74-1.19.74 1.19c.222.353.598.624 1.03.503a.86.86 0 0 0 .592-.853V.964h1.24c.11.002.2.09.2.2v13.81a1.156 1.156 0 0 0-.2-.017H5.054c-.568 0-1.119.192-1.564.545V2.517zm13.029 14.495l-10.979.012a.476.476 0 0 0 0 .952l10.979-.012v.886c0 .053-.02.104-.058.143a.202.202 0 0 1-.142.057H5.053a1.565 1.565 0 0 1 0-3.131h11.265c.11.001.198.09.2.2v.893z"/>
</svg>
