<svg width="20" height="20" viewBox="0 0 20 20" xmlns="http://www.w3.org/2000/svg">
    <path fill-rule="evenodd" clip-rule="evenodd" d="M18.242 1.732h-1.406V.649c0-.358-.262-.649-.586-.649-.324 0-.586.29-.586.65v1.082H4.336V.649C4.336.291 4.074 0 3.75 0c-.324 0-.586.29-.586.65v1.082H1.758C.788 1.732 0 2.606 0 3.68v14.372C0 19.126.789 20 1.758 20h16.484c.97 0 1.758-.874 1.758-1.948V3.68c0-1.075-.789-1.948-1.758-1.948zM1.758 3.03c-.323 0-.586.292-.586.65v2.554h17.656V3.68c0-.358-.263-.65-.586-.65h-1.406v1.083c0 .358-.262.649-.586.649-.324 0-.586-.29-.586-.65V3.03H4.336v1.083c0 .358-.262.649-.586.649-.324 0-.586-.29-.586-.65V3.03H1.758zm0 15.671h16.484c.323 0 .586-.291.586-.65V7.533H1.172v10.52c0 .358.263.65.586.65z"/>
</svg>
