<svg width="140" height="40" viewBox="0 0 140 40" fill="none" xmlns="http://www.w3.org/2000/svg">
<g clip-path="url(#clip0)">
<path d="M54.0591 27.4401C52.649 27.9701 51.0466 28.2351 49.2548 28.2351C43.3808 28.2351 40.4448 25.4151 40.4448 19.7731C40.4448 14.4341 43.3808 11.7651 49.2537 11.7651C51.0466 11.7651 52.648 12.0301 54.0591 12.5601V15.2861C52.649 14.6801 51.1221 14.3771 49.4824 14.3771C45.5543 14.3771 43.5903 16.1761 43.5903 19.7731C43.5903 23.6731 45.5543 25.6231 49.4824 25.6231C51.1231 25.6231 52.648 25.3201 54.0591 24.7131V27.4401ZM59.093 22.1131C59.093 24.6041 60.065 25.8501 62.0109 25.8501C63.9548 25.8501 64.9277 24.6041 64.9277 22.1131C64.9277 19.6821 63.9558 18.4671 62.0109 18.4671C60.066 18.4671 59.093 19.6821 59.093 22.1131ZM56.0614 22.1581C56.0614 18.1601 58.0445 16.1611 62.0109 16.1611C65.9762 16.1611 67.9594 18.1601 67.9594 22.1581C67.9594 26.1491 65.9762 28.1441 62.0099 28.1441C58.0596 28.1441 56.0765 26.1491 56.0614 22.1581ZM73.2794 11.8781V14.2641H70.2477V11.8781H73.2794ZM73.2794 16.1951V28.1221H70.2477V16.1951H73.2794ZM76.1509 28.1221V16.1951H78.4966L78.8743 17.9441C80.0255 16.7781 81.3379 16.1941 82.8094 16.1941C85.6547 16.1941 87.0769 17.6641 87.0769 20.6021V28.1221H84.0452V20.6021C84.0452 19.2841 83.3855 18.6251 82.0661 18.6251C81.0821 18.6251 80.1212 19.0151 79.1825 19.7951V28.1221H76.1509ZM89.9484 27.5541V25.0541C91.284 25.5841 92.824 25.8501 94.5714 25.8501C95.8747 25.8501 96.5274 25.4331 96.5274 24.6001C96.5274 23.8051 96.0883 23.4081 95.211 23.4081H93.0375C90.597 23.4081 89.3763 22.2151 89.3763 19.8301C89.3763 17.3301 91.1581 16.0811 94.7195 16.0811C96.2303 16.0811 97.6524 16.3081 98.987 16.7631V19.2621C97.6524 18.7321 96.2031 18.4661 94.6389 18.4661C92.9992 18.4661 92.1794 18.8831 92.1794 19.7161C92.1794 20.5111 92.6568 20.9091 93.6096 20.9091H95.5545C98.2235 20.9091 99.5591 22.1011 99.5591 24.4871C99.5591 26.9861 97.8579 28.2351 94.4566 28.2351C92.7857 28.2351 91.284 28.0081 89.9484 27.5541ZM101.515 14.2641H103.758L104.215 16.1941H107.236V18.5801H104.547V24.0671C104.547 25.1801 105.031 25.7371 106 25.7371H107.236V28.1221H104.536C102.522 28.1221 101.515 27.0501 101.515 24.9071V14.2641ZM109.307 28.1221V16.1951H111.651L112.029 17.7171C113.082 16.7021 114.196 16.1951 115.37 16.1951V18.6251C114.241 18.6251 113.231 19.0911 112.338 20.0231V28.1221H109.307ZM116.514 24.4071C116.514 22.0371 118.254 20.8521 121.731 20.8521C122.547 20.8521 123.363 20.9281 124.179 21.0791V20.1821C124.179 19.1141 123.405 18.5801 121.857 18.5801C120.545 18.5801 119.089 18.7701 117.486 19.1481V16.7631C119.089 16.3841 120.545 16.1951 121.857 16.1951C125.427 16.1951 127.212 17.5051 127.212 20.1251V28.1221H125.449L124.374 27.0541C123.361 27.7561 122.154 28.1292 120.919 28.1221C117.983 28.1221 116.514 26.8841 116.514 24.4071ZM124.179 23.1241C123.373 22.9685 122.553 22.8925 121.731 22.8971C120.274 22.8971 119.546 23.3891 119.546 24.3731C119.546 25.4331 120.156 25.9631 121.377 25.9631C122.383 25.9631 123.318 25.6531 124.179 25.0321V23.1241ZM133.115 11.8781V14.2641H130.083V11.8781H133.115ZM133.115 16.1951V28.1221H130.083V16.1951H133.115ZM139.018 11.8781V28.1221H135.986V11.8781H139.018Z" fill="#172345"/>
<path fill-rule="evenodd" clip-rule="evenodd" d="M20.1443 1.37398e-05C22.9569 -0.00326373 25.7389 0.579844 28.3101 1.7116C30.8814 2.84335 33.1847 4.49853 35.0709 6.57001L25.9336 15.624C25.0274 14.424 23.7638 13.5375 22.3219 13.09C20.8801 12.6425 19.3329 12.6568 17.8996 13.1307C16.4664 13.6047 15.2196 14.5144 14.3359 15.7309C13.4523 16.9474 12.9765 18.4091 12.976 19.909C12.9754 21.4089 13.4502 22.871 14.333 24.0881C15.2158 25.3052 16.4619 26.2157 17.8949 26.6907C19.3278 27.1657 20.8749 27.181 22.3171 26.7345C23.7593 26.2881 25.0235 25.4024 25.9306 24.203L35.1424 33.35C33.2553 35.4449 30.9437 37.1202 28.3591 38.2662C25.7744 39.4122 22.975 40.0031 20.1443 40C9.01781 40 -0.000610352 31.046 -0.000610352 20V19.823H12.9207L2.81551 9.79501L2.85982 9.72201C6.38097 3.89801 12.8039 1.37398e-05 20.1443 1.37398e-05Z" fill="#3269DC"/>
</g>
<defs>
<clipPath id="clip0">
<rect width="140" height="40" fill="white"/>
</clipPath>
</defs>
</svg>
