<svg width="25" height="24" viewBox="0 0 25 24" xmlns="http://www.w3.org/2000/svg">
    <path d="M8.738 17.479a8.674 8.674 0 0 0 5.594-2.028l.808.808-.268.268a.75.75 0 0 0 0 1.06l6.193 6.193a.748.748 0 0 0 1.06 0l1.657-1.656a.75.75 0 0 0 0-1.06l-6.194-6.193a.75.75 0 0 0-1.06 0l-.327.327-.805-.805a8.667 8.667 0 0 0 2.083-5.653c0-2.334-.91-4.53-2.56-6.18A8.682 8.682 0 0 0 8.739 0 8.68 8.68 0 0 0 2.56 2.56 8.681 8.681 0 0 0 0 8.74a8.68 8.68 0 0 0 2.56 6.179 8.673 8.673 0 0 0 6.178 2.56zm13.452 4.116l-.596.594-5.132-5.132.595-.595 5.133 5.133zM3.62 3.62a7.19 7.19 0 0 1 5.118-2.12c1.934 0 3.752.753 5.12 2.12a7.193 7.193 0 0 1 2.12 5.12 7.191 7.191 0 0 1-2.12 5.118 7.193 7.193 0 0 1-5.12 2.12 7.191 7.191 0 0 1-5.118-2.12A7.192 7.192 0 0 1 1.5 8.741c0-1.935.752-3.752 2.12-5.12z"/>
</svg>
