<svg width="24" height="24" viewBox="0 0 24 24" xmlns="http://www.w3.org/2000/svg">
    <path d="M23.998 1.578C23.998.71 23.288 0 22.42 0h-3.762c-.867 0-1.577.71-1.577 1.578v3.756c0 .868.71 1.578 1.577 1.578h3.757c.868 0 1.578-.71 1.578-1.578V1.578h.005zM22.79 5.339c0 .202-.168.37-.37.37h-3.762a.372.372 0 0 1-.37-.37V1.578c0-.202.168-.37.37-.37h3.757c.202 0 .37.168.37.37v3.761h.005zM23.998 10.122c0-.868-.71-1.578-1.578-1.578h-3.762c-.867 0-1.577.71-1.577 1.578v3.756c0 .868.71 1.578 1.577 1.578h3.757c.868 0 1.578-.71 1.578-1.578v-3.756h.005zm-1.208 3.756c0 .203-.168.37-.37.37h-3.762a.372.372 0 0 1-.37-.37v-3.756c0-.203.168-.37.37-.37h3.757c.202 0 .37.167.37.37v3.756h.005zM22.425 17.083h-3.762c-.868 0-1.578.71-1.578 1.578v3.756c0 .868.71 1.578 1.578 1.578h3.757c.868 0 1.577-.71 1.577-1.578v-3.756a1.575 1.575 0 0 0-1.572-1.578zm.37 5.34c0 .202-.168.37-.37.37h-3.762a.372.372 0 0 1-.37-.37v-3.757c0-.203.168-.37.37-.37h3.757c.202 0 .37.168.37.37v3.756h.005zM8.541 13.878c0 .868.71 1.578 1.578 1.578h3.757c.868 0 1.578-.71 1.578-1.578v-3.756c0-.868-.71-1.578-1.578-1.578h-3.757c-.868 0-1.578.71-1.578 1.578v3.756zm1.208-3.756c0-.203.168-.37.37-.37h3.757c.202 0 .37.167.37.37v3.756c0 .203-.168.37-.37.37h-3.757a.372.372 0 0 1-.37-.37v-3.756zM8.541 22.422c0 .868.71 1.578 1.578 1.578h3.757c.868 0 1.578-.71 1.578-1.578v-3.756c0-.868-.71-1.578-1.578-1.578h-3.757c-.868 0-1.578.71-1.578 1.578v3.756zm1.208-3.761c0-.203.168-.37.37-.37h3.757c.202 0 .37.168.37.37v3.756c0 .202-.168.37-.37.37h-3.757a.372.372 0 0 1-.37-.37v-3.756zM.002 13.878c0 .868.71 1.578 1.578 1.578h3.757c.868 0 1.578-.71 1.578-1.578v-3.756c0-.868-.71-1.578-1.578-1.578H1.58c-.868 0-1.578.71-1.578 1.578v3.756zm1.208-3.756c0-.203.168-.37.37-.37h3.757c.202 0 .37.167.37.37v3.756c0 .203-.168.37-.37.37H1.58a.372.372 0 0 1-.37-.37v-3.756zM.002 22.422C.002 23.29.712 24 1.58 24h3.757c.868 0 1.578-.71 1.578-1.578v-3.756c0-.868-.71-1.578-1.578-1.578H1.58c-.868 0-1.578.71-1.578 1.578v3.756zm1.208-3.761c0-.203.168-.37.37-.37h3.757c.202 0 .37.168.37.37v3.756c0 .202-.168.37-.37.37H1.58a.372.372 0 0 1-.37-.37v-3.756zM8.541 1.578v3.756c0 .868.71 1.578 1.578 1.578h3.757c.868 0 1.578-.71 1.578-1.578V1.578C15.454.71 14.744 0 13.876 0h-3.757a1.58 1.58 0 0 0-1.578 1.578zm1.208 0c0-.202.168-.37.37-.37h3.757c.202 0 .37.168.37.37v3.756c0 .203-.168.37-.37.37h-3.757a.372.372 0 0 1-.37-.37V1.578zM1.58 6.917h3.757c.868 0 1.578-.71 1.578-1.578V1.578C6.915.71 6.205 0 5.337 0H1.58C.712 0 .002.71.002 1.578v3.756c0 .873.71 1.583 1.578 1.583zm-.37-5.34c0-.201.168-.37.37-.37h3.757c.202 0 .37.169.37.37v3.757c0 .203-.168.37-.37.37H1.58a.372.372 0 0 1-.37-.37V1.578z"/>
</svg>
