<svg width="20" height="20" viewBox="0 0 20 20" fill="none" xmlns="http://www.w3.org/2000/svg">
<path d="M16.3105 0H10.8344H5.05346C3.66269 0.00255951 2.53407 1.12589 2.5249 2.51665V17.4832C2.53407 18.874 3.66269 19.9973 5.05346 19.9999H16.3177C16.627 20.0045 16.9252 19.8854 17.1462 19.6689C17.3571 19.4523 17.475 19.1618 17.4748 18.8594V1.16428C17.4735 0.521783 16.953 0.00130952 16.3105 0ZM11.3153 0.952375H14.1129V5.41902L13.1201 3.83569C13.0798 3.76867 13.0238 3.71254 12.9567 3.67236C12.7312 3.53706 12.4387 3.61016 12.3034 3.83569L11.3153 5.41187V0.952375ZM3.48918 2.51665C3.49311 1.65434 4.19114 0.956304 5.05346 0.952375H10.363V5.80949C10.345 6.19609 10.5878 6.54698 10.9558 6.66663C11.3748 6.79282 11.751 6.52139 11.9748 6.16425L12.7153 4.97378L13.4558 6.16425C13.6772 6.51663 14.0534 6.78805 14.4844 6.66663C14.8507 6.54746 15.0929 6.19913 15.0772 5.81425V0.96428H16.3177C16.4276 0.965589 16.5164 1.05434 16.5177 1.16428V14.9734C16.4516 14.9622 16.3847 14.9567 16.3177 14.9571H5.05346C4.48543 14.9569 3.93406 15.1491 3.48918 15.5023V2.51665V2.51665ZM16.5177 17.0118L5.53917 17.0237C5.2762 17.0237 5.06298 17.2369 5.06298 17.4999C5.06298 17.7629 5.2762 17.9761 5.53917 17.9761L16.5177 17.9642V18.8499C16.5182 18.9032 16.4977 18.9545 16.4605 18.9927C16.4223 19.0298 16.3709 19.0504 16.3177 19.0499H5.05346C4.18888 19.0499 3.48799 18.349 3.48799 17.4844C3.48799 16.6198 4.18888 15.919 5.05346 15.919H16.3177C16.4276 15.9203 16.5164 16.009 16.5177 16.119V17.0118V17.0118Z" fill="#979797"/>
</svg>
