<svg width="20" height="20" viewBox="0 0 20 20" fill="none" xmlns="http://www.w3.org/2000/svg">
<path fill-rule="evenodd" clip-rule="evenodd" d="M18.2422 1.7316H16.8359V0.649351C16.8359 0.290736 16.5736 0 16.25 0C15.9264 0 15.6641 0.290736 15.6641 0.649351V1.7316H4.33594V0.649351C4.33594 0.290736 4.07359 0 3.75 0C3.42641 0 3.16406 0.290736 3.16406 0.649351V1.7316H1.75781C0.788555 1.7316 0 2.6055 0 3.67965V18.0519C0 19.1261 0.788555 20 1.75781 20H18.2422C19.2114 20 20 19.1261 20 18.0519V3.67965C20 2.6055 19.2114 1.7316 18.2422 1.7316ZM1.75781 3.0303C1.43473 3.0303 1.17188 3.3216 1.17188 3.67965V6.23377H18.8281V3.67965C18.8281 3.3216 18.5653 3.0303 18.2422 3.0303H16.8359V4.11255C16.8359 4.47117 16.5736 4.76191 16.25 4.76191C15.9264 4.76191 15.6641 4.47117 15.6641 4.11255V3.0303H4.33594V4.11255C4.33594 4.47117 4.07359 4.76191 3.75 4.76191C3.42641 4.76191 3.16406 4.47117 3.16406 4.11255V3.0303H1.75781ZM1.75781 18.7013H18.2422C18.5653 18.7013 18.8281 18.41 18.8281 18.0519V7.53247H1.17188V18.0519C1.17188 18.41 1.43473 18.7013 1.75781 18.7013Z" fill="#32325D"/>
</svg>
