<svg width="30" height="30" viewBox="0 0 30 30" fill="none" xmlns="http://www.w3.org/2000/svg">
<path d="M15.0022 17.9561C16.6344 17.9561 17.9575 16.633 17.9575 15.0008C17.9575 13.3686 16.6344 12.0454 15.0022 12.0454C13.37 12.0454 12.0469 13.3686 12.0469 15.0008C12.0469 16.633 13.37 17.9561 15.0022 17.9561Z" fill="#C4C4C4"/>
<path d="M26.8513 14.6268C26.6348 14.3978 21.4859 9 14.9985 9C8.51174 9 3.36354 14.3978 3.14767 14.6268C2.95078 14.8371 2.95078 15.165 3.14767 15.3744C3.3644 15.6034 8.51274 21.0036 14.9985 21.0036C21.4859 21.0036 26.6364 15.6034 26.8513 15.3744C27.0496 15.165 27.0496 14.8354 26.8513 14.6268ZM14.9999 19.5698C12.4815 19.5698 10.4326 17.5206 10.4326 15.0001C10.4326 12.4817 12.4815 10.4313 14.9999 10.4313C17.5182 10.4313 19.5699 12.481 19.5699 15.0001C19.5693 17.5191 17.5182 19.5698 14.9999 19.5698ZM11.3782 10.6872C10.144 11.7259 9.34098 13.2634 9.34098 15.0001C9.34098 16.7362 10.144 18.2738 11.3782 19.3144C7.96306 18.216 5.28116 15.9049 4.32257 15.0001C5.2813 14.0964 7.96377 11.785 11.3782 10.6872ZM18.6233 19.3127C19.8567 18.2733 20.6607 16.7353 20.6607 15.0001C20.6607 13.265 19.8574 11.7282 18.6223 10.6887C22.0373 11.7871 24.7172 14.0954 25.6764 15.0001C24.7171 15.9041 22.0372 18.2127 18.6233 19.3127Z" fill="#C4C4C4"/>
</svg>
