<svg width="16" height="16" viewBox="0 0 16 16" fill="none" xmlns="http://www.w3.org/2000/svg">
<path d="M13.6571 2.34281C10.5329 -0.781087 5.46739 -0.781435 2.34281 2.34281C-0.781435 5.46705 -0.781087 10.5325 2.34281 13.6571C5.46705 16.7807 10.5325 16.781 13.6571 13.6571C16.781 10.5325 16.7807 5.46739 13.6571 2.34281ZM8.86955 11.4783C8.86955 12.0547 8.57598 12.5218 7.99962 12.5218C7.42326 12.5218 7.13039 12.0547 7.13039 11.4783V7.3043C7.13039 6.72794 7.42326 6.2608 7.99962 6.2608C8.57598 6.2608 8.86955 6.72794 8.86955 7.3043V11.4783ZM7.99962 5.39122C7.39857 5.39122 7.11786 5.04721 7.13039 4.52163C7.11786 3.97067 7.38639 3.65205 7.99962 3.65205C8.6132 3.65205 8.85668 4.01867 8.86955 4.56929C8.86921 5.09487 8.62572 5.39122 7.99962 5.39122Z" fill="#DADADA"/>
</svg>
