<svg width="25" height="24" viewBox="0 0 25 24" fill="none" xmlns="http://www.w3.org/2000/svg">
<path d="M8.73832 17.4789C10.807 17.4789 12.7639 16.7618 14.3323 15.4507L15.1402 16.2585L14.8716 16.5271C14.7306 16.6681 14.6519 16.8586 14.6519 17.0574C14.6519 17.2561 14.7306 17.4474 14.8716 17.5876L21.065 23.7802C21.2112 23.9265 21.4033 24 21.5953 24C21.7873 24 21.9793 23.9265 22.1256 23.7802L23.7817 22.1241C23.9227 21.9831 24.0015 21.7925 24.0015 21.5938C24.0015 21.395 23.9227 21.2037 23.7817 21.0635L17.5884 14.8709C17.2951 14.5776 16.8211 14.5776 16.5278 14.8709L16.2008 15.1979L15.3959 14.3931C16.7408 12.815 17.4789 10.8355 17.4789 8.73982C17.4789 6.4056 16.5698 4.2109 14.9189 2.55999C13.268 0.909085 11.0733 0 8.73907 0C6.40485 0 4.21014 0.909085 2.55999 2.55999C0.909085 4.2109 0 6.40485 0 8.73982C0 11.074 0.909085 13.2687 2.55999 14.9189C4.20939 16.5706 6.4041 17.4789 8.73832 17.4789ZM22.1901 21.5945L21.5945 22.1893L16.4618 17.0574L17.0574 16.4625L22.1901 21.5945ZM3.61984 3.62134C4.98722 2.25396 6.80464 1.50089 8.73832 1.50089C10.672 1.50089 12.4902 2.25396 13.8576 3.62134C15.2249 4.98872 15.978 6.80689 15.978 8.74057C15.978 10.6743 15.2249 12.4917 13.8576 13.8591C12.4902 15.2264 10.672 15.9795 8.73832 15.9795C6.80464 15.9795 4.98722 15.2264 3.61984 13.8591C2.25246 12.4917 1.49939 10.6735 1.49939 8.74057C1.49939 6.80614 2.25171 4.98872 3.61984 3.62134Z" fill="#32325D"/>
</svg>
