<svg width="14" height="14" viewBox="0 0 14 14" fill="none" xmlns="http://www.w3.org/2000/svg">
<path d="M12.3434 1.2425L6.02589 7.58333C5.95347 7.54137 5.87731 7.50622 5.79839 7.47833L1.62756 6.06666C1.50142 6.03505 1.38947 5.9622 1.30948 5.85969C1.22948 5.75717 1.18604 5.63086 1.18604 5.50083C1.18604 5.3708 1.22948 5.24449 1.30948 5.14198C1.38947 5.03946 1.50142 4.96661 1.62756 4.935L11.9759 1.25416C12.0435 1.2312 12.1145 1.21938 12.1859 1.21916C12.2393 1.2183 12.2925 1.22619 12.3434 1.2425Z" fill="#A4A4A4"/>
<path d="M12.7459 2.02416L9.06503 12.3842C9.02444 12.5049 8.94545 12.609 8.84012 12.6807C8.73478 12.7523 8.6089 12.7875 8.4817 12.7808C8.35303 12.7867 8.22602 12.7499 8.1205 12.676C8.01498 12.6021 7.93687 12.4954 7.89836 12.3725L6.51003 8.20166C6.48214 8.12275 6.44699 8.04659 6.40503 7.97416L12.7575 1.65666C12.7934 1.77722 12.7893 1.90612 12.7459 2.02416Z" fill="#A4A4A4"/>
</svg>
