<svg width="280" height="116" viewBox="0 0 280 116" fill="none" xmlns="http://www.w3.org/2000/svg">
<g clip-path="url(#clip0)">
<path d="M65.1411 68.5631H75.2986V86.4073H65.1411V107.614H42.0123V86.4073H3.37263L2 72.2692L42.0123 7.89266V7.68677H65.1411V68.5631ZM24.0308 68.5631H42.0123V37.8161L40.571 40.1495L24.0308 68.5631Z" fill="#303030"/>
<path d="M270.587 68.5631H280.744V86.4073H270.587V107.614H247.458V86.4073H208.818L207.446 72.2692L247.458 7.89266V7.68677H270.587V68.5631ZM229.477 68.5631H247.458V37.8161L246.017 40.1495L229.477 68.5631Z" fill="#303030"/>
<g clip-path="url(#clip1)">
<path d="M184.601 102.533C185.438 101.586 186.246 100.611 187.02 99.6086C187.308 99.2358 187.831 99.1362 188.239 99.3719L188.458 99.498C188.91 99.7586 189.489 99.6037 189.75 99.152L196.191 88.0169C196.452 87.5646 196.296 86.9872 195.843 86.7261L195.496 86.5257C195.092 86.2931 194.916 85.8025 195.085 85.3696C195.535 84.2152 195.949 83.0428 196.326 81.8532C196.468 81.4032 196.925 81.1307 197.391 81.2126L197.826 81.2891C198.341 81.3795 198.832 81.0365 198.922 80.5228L201.159 67.86C201.25 67.3464 200.906 66.8564 200.392 66.7652L199.759 66.6541C199.301 66.5735 198.968 66.1721 198.977 65.7069C198.986 65.3134 198.99 64.9187 198.99 64.5234C198.99 63.7002 198.972 62.8809 198.937 62.0661C198.917 61.5937 199.251 61.1802 199.718 61.0982L200.392 60.9798C200.906 60.8887 201.25 60.3986 201.159 59.885L198.922 47.2225C198.832 46.7086 198.341 46.3655 197.826 46.4561L196.986 46.6038C196.529 46.6845 196.078 46.4221 195.928 45.983C195.542 44.8517 195.121 43.7365 194.667 42.6382C194.488 42.202 194.662 41.7003 195.071 41.4644L195.843 41.0189C196.297 40.758 196.452 40.1801 196.191 39.7283L189.75 28.5931C189.489 28.141 188.91 27.9867 188.458 28.2471L187.533 28.78C187.129 29.0124 186.616 28.9186 186.325 28.5568C185.592 27.6463 184.832 26.759 184.047 25.895C183.73 25.5462 183.721 25.017 184.024 24.6562L184.732 23.8144C185.068 23.4154 185.015 22.8192 184.615 22.4836L174.749 14.219C174.348 13.8833 173.752 13.9354 173.414 14.3352L172.636 15.2626C172.335 15.6197 171.818 15.7062 171.421 15.4634C170.438 14.8635 169.436 14.2915 168.416 13.7502C168.001 13.5298 167.814 13.036 167.975 12.5951L168.395 11.4428C168.574 10.9516 168.321 10.4095 167.83 10.2309L155.727 5.83351C155.235 5.65496 154.692 5.90801 154.514 6.39808L154.071 7.61091C153.912 8.04987 153.455 8.30758 152.997 8.21446C151.881 7.98664 150.753 7.7913 149.614 7.62953C149.15 7.56348 148.805 7.1635 148.805 6.69476V5.39368C148.805 4.87188 148.382 4.44873 147.859 4.44873H134.979C134.457 4.44873 134.033 4.87188 134.033 5.39368V6.69476C134.033 7.1635 133.689 7.56348 133.224 7.62953C132.085 7.7913 130.957 7.98664 129.841 8.21446C129.383 8.30758 128.927 8.04987 128.767 7.61091L128.325 6.39808C128.146 5.90801 127.603 5.65496 127.112 5.83351L115.008 10.2309C114.517 10.4095 114.264 10.9516 114.443 11.4428L114.863 12.5951C115.024 13.036 114.837 13.5298 114.422 13.7502C113.402 14.2915 112.4 14.8635 111.418 15.4634C111.02 15.7062 110.503 15.6197 110.203 15.2626L109.423 14.3352C109.087 13.9354 108.49 13.8833 108.09 14.219L98.2233 22.4836C97.8227 22.8192 97.7705 23.4154 98.1064 23.8144L98.8134 24.6562C99.1166 25.017 99.1089 25.5462 98.7918 25.895C98.0058 26.759 97.246 27.6463 96.5133 28.5568C96.222 28.9196 95.7084 29.0124 95.3055 28.78L94.381 28.2471C93.9281 27.9867 93.3493 28.141 93.088 28.5931L86.648 39.7283C86.3866 40.1801 86.5417 40.758 86.9945 41.0189L87.7672 41.4644C88.1764 41.7003 88.3505 42.202 88.1704 42.6382C87.7166 43.7365 87.2959 44.8517 86.9098 45.983C86.7599 46.4221 86.3092 46.6845 85.8516 46.6038L85.0121 46.4561C84.4973 46.3655 84.0063 46.7086 83.9156 47.2225L81.679 59.885C81.5882 60.3986 81.932 60.8887 82.4467 60.9798L83.1202 61.0982C83.5865 61.1802 83.921 61.5937 83.9008 62.0661C83.8661 62.8809 83.8482 63.7002 83.8482 64.5234C83.8482 64.9187 83.8526 65.3134 83.8608 65.7069C83.8706 66.1721 83.5381 66.5735 83.0795 66.6541L82.4467 66.7652C81.932 66.8564 81.5882 67.3464 81.679 67.86L83.9156 80.5228C84.0063 81.0365 84.4973 81.3795 85.0121 81.2891L85.4475 81.2126C85.9131 81.1307 86.3702 81.4032 86.5125 81.8532C86.8887 83.0428 87.3028 84.2152 87.7531 85.3696C87.922 85.8025 87.7454 86.2931 87.3425 86.5257L86.9945 86.7261C86.5417 86.9872 86.3866 87.5646 86.648 88.0169L93.088 99.152C93.3493 99.6037 93.9281 99.7586 94.381 99.498L94.5992 99.3719C95.0078 99.1362 95.5297 99.2358 95.818 99.6086C96.5925 100.611 97.3993 101.586 98.2368 102.533C98.5452 102.882 98.5481 103.405 98.2485 103.761L98.1064 103.93C97.7705 104.33 98.5605 104.863 98.2233 105.261C84.9161 120.986 131.596 114.848 139.998 114.689C162.013 112.954 183.045 114.149 185.651 112.126C188.434 109.966 184.601 102.533 184.601 102.533Z" fill="#2D2B2D"/>
<path d="M185.136 63.8726C185.136 87.9751 165.563 107.515 141.419 107.515C117.275 107.515 97.7021 87.9751 97.7021 63.8726C97.7021 39.7699 117.275 20.231 141.419 20.231C165.563 20.231 185.136 39.7699 185.136 63.8726Z" fill="#D9DADB"/>
<path d="M182.695 63.8726C182.695 86.629 164.215 105.077 141.419 105.077C118.623 105.077 100.144 86.629 100.144 63.8726C100.144 41.116 118.623 22.6677 141.419 22.6677C164.215 22.6677 182.695 41.116 182.695 63.8726Z" fill="#5D5E60"/>
<path d="M178.046 63.8727C178.046 84.066 161.647 100.436 141.419 100.436C121.191 100.436 104.792 84.066 104.792 63.8727C104.792 43.6791 121.191 27.3088 141.419 27.3088C161.647 27.3088 178.046 43.6791 178.046 63.8727Z" fill="#D9DADB"/>
<path d="M172.004 63.6353C172.004 80.6062 158.222 94.3638 141.222 94.3638C124.222 94.3638 110.441 80.6062 110.441 63.6353C110.441 46.6646 124.222 32.907 141.222 32.907C158.222 32.907 172.004 46.6646 172.004 63.6353Z" fill="#464648"/>
<path d="M155.54 65.3907C155.54 65.262 155.539 65.1326 155.535 65.0045C155.481 63.0329 156.551 61.1998 158.262 60.2136L172.814 51.8262L168.687 44.6891L153.787 53.2768C152.134 54.2292 150.106 54.2202 148.443 53.2861C148.418 53.2718 148.392 53.2576 148.367 53.2435C146.641 52.2888 145.547 50.4997 145.547 48.5305V29.8232H137.292V48.8295C137.292 50.7171 136.269 52.4447 134.637 53.3965C134.62 53.4064 134.603 53.4163 134.585 53.4263C132.921 54.4058 130.848 54.3792 129.174 53.4149L113.282 44.2553L109.155 51.3924L125.054 60.5561C126.733 61.524 127.751 63.3219 127.733 65.2583C127.733 65.3026 127.732 65.3463 127.732 65.3907C127.732 66.4958 127.862 67.5712 128.107 68.6015C128.571 70.5557 127.946 72.6061 126.427 73.9226L114.395 84.3416L119.805 90.5668L132.353 79.7001C133.747 78.493 135.671 78.0669 137.43 78.6236C138.758 79.0439 140.17 79.2708 141.636 79.2708C143.096 79.2708 144.503 79.0461 145.824 78.6297C147.737 78.0267 149.827 78.527 151.245 79.943L162.611 91.2894L168.449 85.462L156.59 73.6239C155.271 72.3074 154.74 70.4032 155.168 68.5919C155.412 67.5644 155.54 66.4927 155.54 65.3907Z" fill="#D9DADB"/>
<path d="M147.607 65.1215C147.607 68.2645 145.055 70.8123 141.906 70.8123C138.758 70.8123 136.205 68.2645 136.205 65.1215C136.205 61.978 138.758 59.4302 141.906 59.4302C145.055 59.4302 147.607 61.978 147.607 65.1215Z" fill="#2D2B2D"/>
<path d="M147.208 70.1631C145.16 72.6587 141.915 73.6139 138.891 72.3643C135.828 71.0982 133.922 68.3676 133.983 65.0339C134.023 62.8966 134.941 60.9353 136.37 59.3747C137.695 57.9283 139.591 56.7079 141.599 56.66C144.336 57.1021 146.828 58.7931 148.179 61.2486C149.741 64.0874 149.237 67.6899 147.208 70.1631ZM150.422 62.0199C148.961 57.6976 144.385 54.6732 139.836 54.9971C139.218 55.0411 139.023 55.6274 139.197 56.0664C136.191 57.0728 133.741 60.2638 132.754 63.0563C132.057 65.0304 131.935 67.1545 132.788 69.1017C133.578 70.9075 134.933 72.3812 136.614 73.4026C139.967 75.4398 144.333 75.1143 147.29 72.5324C150.204 69.9882 151.684 65.7553 150.422 62.0199Z" fill="#BCBBBC"/>
<path d="M168.949 45.3672C168.679 43.4178 167.39 41.9439 166.08 40.5701C163.289 37.6431 160.349 34.8653 157.02 32.5517C156.055 31.8816 155.116 33.2859 156.135 33.915C159.072 35.7259 161.766 37.8628 164.117 40.3878C165.213 41.5646 166.335 42.917 166.978 44.4032C167.515 45.6417 167.595 47.3809 166.407 48.2825C166.221 48.4245 166.133 48.6046 166.118 48.7853C165.833 48.8976 165.552 49.027 165.277 49.1275C164.707 49.3353 164.136 49.5382 163.569 49.7555C162.396 50.2058 161.236 50.6892 160.094 51.2117C157.784 52.2679 155.536 53.4564 153.361 54.7667C152.485 55.294 153.382 56.6116 154.255 56.079C156.378 54.7832 158.568 53.6023 160.828 52.563C161.931 52.056 163.045 51.5741 164.174 51.1257C164.737 50.902 165.302 50.6767 165.875 50.479C166.463 50.2764 167.126 50.186 167.632 49.8137C167.952 49.578 167.993 49.2083 167.848 48.9266C168.741 48.0022 169.128 46.6528 168.949 45.3672Z" fill="#BCBBBC"/>
<path d="M173.584 64.7325C173.129 66.7557 172.923 68.8311 172.514 70.8671C172.107 72.8897 171.505 74.8868 170.715 76.7935C169.367 80.0445 167.235 83.1072 164.366 85.193C164.104 84.7783 163.746 84.4693 163.394 84.1055C162.933 83.6288 162.487 83.1357 162.034 82.6518C161.138 81.6937 160.23 80.7458 159.363 79.7609C157.657 77.8222 155.935 75.9057 154.176 74.0148C153.413 73.1946 152.257 74.5377 153.038 75.352C154.804 77.1966 156.6 79.005 158.417 80.7993C159.293 81.6632 160.131 82.5645 160.98 83.4546C161.436 83.9343 161.898 84.4103 162.351 84.8942C162.781 85.3539 163.132 85.8627 163.69 86.1712C163.787 86.2253 163.895 86.238 164.001 86.2234C164.183 86.5696 164.608 86.7881 165.02 86.4967C168.178 84.261 170.304 81.0847 171.808 77.5677C172.646 75.6058 173.213 73.5638 173.762 71.5078C174.327 69.3873 174.877 67.2076 175.146 65.0294C175.27 64.0208 173.81 63.7269 173.584 64.7325Z" fill="#BCBBBC"/>
<path d="M135.692 95.5203C132.56 95.1833 129.514 94.2803 126.667 92.9348C125.27 92.2748 123.944 91.5035 122.69 90.6007C122.043 90.1343 121.393 89.6686 120.771 89.1689C120.352 88.8318 119.537 88.215 119.575 87.5803C121.696 86.3435 123.659 84.6518 125.449 83.0033C127.412 81.1949 129.189 79.1972 130.772 77.0495C131.335 76.2856 130.219 75.3177 129.637 76.0865C128.075 78.1486 126.334 80.0729 124.415 81.8094C123.45 82.6832 122.437 83.506 121.391 84.2807C120.348 85.0544 119.235 85.7047 118.17 86.4419C117.576 86.8536 117.764 87.5416 118.227 87.8263C118.35 89.0141 119.468 89.9547 120.415 90.6942C121.845 91.8121 123.43 92.7272 125.044 93.5535C128.304 95.2216 131.841 96.2295 135.47 96.6855C136.229 96.7808 136.451 95.6017 135.692 95.5203Z" fill="#BCBBBC"/>
<path d="M128.056 58.2109C122.863 55.799 117.965 52.7249 113.563 49.066C112.917 48.5287 112.117 49.1614 112.159 49.8064C110.481 50.6879 109.578 52.3622 108.899 54.0805C108.085 56.1435 107.564 58.2868 107.346 60.4935C107.13 62.6825 107.17 64.9114 107.449 67.0927C107.592 68.2141 107.806 69.3283 108.103 70.4189C108.396 71.493 108.701 72.6346 109.299 73.5807C109.671 74.1679 110.459 73.6662 110.324 73.0707C110.104 72.1063 109.685 71.1894 109.411 70.2361C109.129 69.2566 108.897 68.2591 108.732 67.2536C108.396 65.2139 108.334 63.1561 108.551 61.1006C108.761 59.1083 109.195 57.1107 109.843 55.2141C110.393 53.607 111.105 51.6171 112.737 50.8109C112.791 50.784 112.838 50.7514 112.879 50.7152C117.273 54.3646 122.114 57.3912 127.343 59.7041C128.315 60.1346 129.027 58.6621 128.056 58.2109Z" fill="#BCBBBC"/>
<path d="M140.401 40.3986C140.346 37.5802 140.276 34.7676 140.149 31.9516C140.133 31.6262 139.921 31.4616 139.683 31.437C139.784 31.2279 139.789 30.9733 139.621 30.723C138.59 29.1863 136.571 29.5308 135.075 30.0505C133.049 30.7536 131.028 31.4843 129.082 32.3876C125.207 34.1868 121.484 36.479 118.216 39.2326C117.498 39.8378 118.373 40.8344 119.081 40.1936C121.954 37.5906 125.134 35.3904 128.656 33.7541C130.335 32.9735 132.077 32.2634 133.855 31.7372C134.724 31.4802 135.631 31.2665 136.529 31.1424C137.162 31.0547 137.968 30.9697 138.362 31.5781C138.531 31.8394 138.775 31.9298 139.011 31.9063C139.003 31.9455 138.997 31.9865 138.996 32.0302C138.915 34.8552 138.893 37.676 138.886 40.5019C138.879 43.3162 138.821 46.1506 138.938 48.9626C138.98 49.9787 140.467 49.8385 140.49 48.8566C140.56 46.0439 140.455 43.2116 140.401 40.3986Z" fill="#BCBBBC"/>
<path d="M131.112 16.8075C126.734 18.0808 122.561 19.9818 118.646 22.3135C116.66 23.4956 114.688 24.7018 112.826 26.0737C111.011 27.4112 109.309 28.9467 107.707 30.5295C100.892 37.2627 96.162 45.834 94.4265 55.2682C93.4694 60.4711 93.2356 66.1175 94.4583 71.2946C94.6181 71.971 95.716 71.7361 95.6465 71.0566C95.4109 68.7589 95.1871 66.4703 95.2132 64.1568C95.24 61.7997 95.4742 59.448 95.8882 57.1271C96.7031 52.5574 98.2595 48.1806 100.288 44.0126C104.205 35.9624 110.491 29.2152 117.802 24.1029C121.923 21.2216 126.602 19.1131 131.306 17.3776C131.672 17.2428 131.483 16.6997 131.112 16.8075Z" fill="#737476"/>
<path d="M187.182 46.1979C184.456 40.3561 180.119 35.7227 175.829 31.001C171.679 26.4317 166.933 21.3805 160.386 20.8997C159.905 20.8643 159.741 21.5814 160.242 21.6548C165.737 22.464 169.982 26.6279 173.534 30.5761C177.559 35.0524 181.568 39.7603 184.418 45.0944C189.944 55.4387 189.186 68.1509 185.278 78.9028C184.143 82.0257 182.766 85.0812 181.109 87.9636C180.301 89.3674 179.418 90.7258 178.448 92.024C177.424 93.3939 176.245 94.6259 175.186 95.9642C174.598 96.7068 175.536 97.8926 176.35 97.2575C178.757 95.3788 180.615 92.6713 182.243 90.118C183.902 87.5149 185.323 84.7423 186.49 81.8854C188.82 76.1813 190.304 70.0751 190.534 63.9072C190.758 57.8648 189.75 51.7002 187.182 46.1979Z" fill="#737476"/>
<path d="M128.379 108.846C123.748 107.695 118.829 106.148 114.98 103.243C113.07 101.802 111.103 100.474 109.274 98.9231C107.419 97.3492 105.689 95.6175 104.129 93.7508C102.393 91.6743 100.816 89.4634 99.4696 87.1146C99.2936 86.8074 98.7569 87.0685 98.9055 87.3952C100.965 91.9232 103.882 95.9423 107.492 99.3658C109.301 101.082 111.278 102.607 113.419 103.891C115.528 105.157 117.881 106.194 120.148 107.145C122.773 108.246 125.448 109.031 128.269 109.421C128.644 109.472 128.745 108.937 128.379 108.846Z" fill="#737476"/>
<path d="M165.679 105.497C150.628 109.267 135.031 112.726 119.557 109.349C115.577 108.48 111.524 107.119 107.993 105.069C107.711 104.906 107.506 105.355 107.777 105.522C109.371 106.508 111.002 107.502 112.707 108.287C114.347 109.043 116.051 109.664 117.77 110.211C121.335 111.346 125.053 112.039 128.786 112.295C136.759 112.844 144.64 111.8 152.423 110.119C157.017 109.127 161.577 107.981 166.132 106.825C167.012 106.602 166.55 105.278 165.679 105.497Z" fill="#737476"/>
<path d="M170.619 101.203C169.778 101.969 168.826 102.62 167.776 103.06C166.969 103.398 167.379 104.658 168.218 104.357C169.554 103.879 170.743 103.166 171.741 102.155C172.418 101.471 171.301 100.581 170.619 101.203Z" fill="#737476"/>
<path fill-rule="evenodd" clip-rule="evenodd" d="M191.923 18.7161L190.259 31.4742L182.307 25.6025L191.923 18.7161Z" fill="#2D2B2D"/>
<path fill-rule="evenodd" clip-rule="evenodd" d="M189.587 18.4734L186.211 22.9502L182.834 27.4269L178.976 21.3862L189.587 18.4734Z" fill="#2D2B2D"/>
<path fill-rule="evenodd" clip-rule="evenodd" d="M187.284 14.3124L190.254 0L192.426 0.562401L188.173 14.5427L187.284 14.3124Z" fill="#2D2B2D"/>
<path fill-rule="evenodd" clip-rule="evenodd" d="M189.618 15.1798L196.949 2.52783L198.833 3.74402L190.39 15.6778L189.618 15.1798Z" fill="#2D2B2D"/>
<path fill-rule="evenodd" clip-rule="evenodd" d="M191.463 16.4656L203.454 8.07886L204.649 9.97471L191.952 17.242L191.463 16.4656Z" fill="#2D2B2D"/>
<path fill-rule="evenodd" clip-rule="evenodd" d="M173.932 16.023L179.545 15.9161L185.158 15.8091L182.773 22.5659L173.932 16.023Z" fill="#2D2B2D"/>
</g>
</g>
<defs>
<clipPath id="clip0">
<rect width="280" height="116" fill="white"/>
</clipPath>
<clipPath id="clip1">
<rect width="122.988" height="116" fill="white" transform="translate(81.6627)"/>
</clipPath>
</defs>
</svg>
