<svg width="30" height="30" viewBox="0 0 30 30" xmlns="http://www.w3.org/2000/svg">
    <path d="M25.647 25.042c0 1.218-1.008 2.185-2.227 2.185h-9.748c-1.218 0-1.764-.966-1.764-2.185l-.127-3.866c0-.63-.546-1.134-1.176-1.134l-3.613.042a2.197 2.197 0 0 1-2.185-2.185V3.697c0-1.218.966-2.226 2.185-2.226H23.42a2.242 2.242 0 0 1 2.227 2.226v21.345zm-15.798.252l-2.9-3.193c-.63-.672-1.89-2.311-1.68-2.311.21 0 1.176 1.092 3.025 1.008h1.009c.924 0 1.68.757 1.68 1.681v1.387c-.042 1.68 1.135 2.436 1.135 2.689 0 .294-1.639-.589-2.27-1.26zM25.017 0H5.479C3.84 0 3 1.303 3 2.9v24.243C3 28.698 3.84 30 5.479 30h19.538c1.639 0 2.479-1.302 2.479-2.857V2.899c0-1.596-.84-2.899-2.48-2.899z"/>
    <path d="M22.874 7.647c.42 0 .756.336.756.756 0 .378-.336.715-.756.715H7.412a.736.736 0 0 1-.714-.715c0-.42.336-.756.714-.756h15.462zM22.874 3.781c.42 0 .756.337.756.715 0 .42-.336.756-.756.756H7.412c-.378 0-.714-.336-.714-.756 0-.378.336-.715.714-.715h15.462zM22.874 11.555c.42 0 .756.336.756.756s-.336.756-.756.756H7.412c-.378 0-.714-.336-.714-.756s.336-.756.714-.756h15.462zM22.874 15.462c.42 0 .756.336.756.714 0 .42-.336.757-.756.757H7.412c-.378 0-.714-.336-.714-.757 0-.378.336-.714.714-.714h15.462zM22.874 19.286c.42 0 .756.336.756.756s-.336.756-.756.756h-8.781a.753.753 0 0 1-.757-.756c0-.42.336-.756.756-.756h8.782z"/>
</svg>
