<svg width="36" height="36" viewBox="0 0 36 36" fill="none" xmlns="http://www.w3.org/2000/svg">
<path fill-rule="evenodd" clip-rule="evenodd" d="M17.9939 36C27.9379 36 36 27.9379 36 17.9939C36 8.06206 27.9379 0 17.9939 0C8.06206 0 0 8.06206 0 17.9939C0 27.9379 8.06206 36 17.9939 36ZM16.2091 22.5471H19.4266L19.7909 6.75076H15.857L16.2091 22.5471ZM16.3184 25.9224C15.942 26.311 15.7477 26.7845 15.7477 27.3794C15.7477 27.9379 15.9298 28.4115 16.3062 28.7879C16.6705 29.1642 17.1926 29.3585 17.8725 29.3585C18.5524 29.3585 19.0745 29.1642 19.4388 28.7879C19.8152 28.4115 19.9973 27.9379 19.9973 27.3794C19.9973 26.7845 19.803 26.311 19.4266 25.9224C19.0503 25.5339 18.5282 25.3396 17.8725 25.3396C17.2169 25.3396 16.6948 25.5339 16.3184 25.9224Z" fill="#FEC023"/>
</svg>
