<svg width="211" height="26" viewBox="0 0 211 26" fill="none" xmlns="http://www.w3.org/2000/svg">
<path d="M195.37 6.65116L196.217 0L194.373 0.765891L190.853 8.46511L195.37 6.65116Z" fill="white"/>
<path d="M186.053 18.5832L192.829 24.0251L193.958 15.7212L186.053 18.5832Z" fill="white"/>
<path d="M187.747 9.97683L192.264 1.51172L190.42 2.27761L184.924 7.86055L187.747 9.97683Z" fill="white"/>
<path d="M182.533 19.9534L184.227 16.9302L170.958 22.0697L167.137 26L182.533 19.9534Z" fill="white"/>
<path d="M210.615 6.65137H205.533L188.726 13.101L180.406 6.65137H170.807L184.208 16.9304L210.615 6.65137Z" fill="#E2001A"/>
<path d="M0 21.7676L13.0435 8.50563C14.1728 7.27617 15.5279 6.65137 18.1442 6.65137H26.1622C29.1172 6.65137 29.569 7.73974 28.6843 10.1382L24.2612 21.7676H17.5042L21.6074 11.0049C21.7956 10.4405 21.9085 9.81571 20.9674 9.81571H20.3463C19.8569 9.83586 19.5181 9.83586 18.7653 10.6219L13.9846 15.4591H18.8217L17.636 18.6033H10.8978L7.7922 21.7676H0Z" fill="white"/>
<path d="M27.2164 21.7676L32.9571 6.65137H44.4383H46.1323C49.7272 6.65137 50.6119 7.75989 50.1225 9.47307L48.9744 12.4963C48.5415 13.5847 47.0734 13.887 45.0218 14.0483C47.1298 14.3909 47.9392 15.1366 47.5627 16.225L46.1699 19.8731C45.6429 21.0824 44.7207 21.7475 42.7255 21.7475L27.2164 21.7676ZM40.1658 17.8979L40.8434 16.1041C40.9939 15.7413 40.881 15.4793 40.2787 15.4793H37.3613L38.3965 12.6374H41.3327C41.935 12.6374 42.2738 12.3956 42.4056 12.0529L42.8761 10.7831C43.0832 10.1785 42.8197 9.79555 42.255 9.79555H38.5283L35.178 18.6033H38.9424C39.4882 18.6235 39.9776 18.4018 40.1658 17.8979Z" fill="white"/>
<path d="M60.7745 21.7676H54.0175L58.5723 9.79555H52.0977L53.2646 6.65137H72.3875L71.2017 9.79555H65.3105L60.7745 21.7676Z" fill="white"/>
<path d="M90.3638 18.2204L93.8458 9.06997C94.5987 7.13509 96.3679 6.65137 98.3254 6.65137H110.07L108.884 9.79555H101.902C100.942 9.79555 100.057 10.3196 99.53 11.8917L97.5537 17.0917C97.102 18.301 97.5161 18.6033 98.7771 18.6033H105.496L104.311 21.7475H92.8106C91.079 21.7676 89.611 20.3568 90.3638 18.2204Z" fill="white"/>
<path d="M146.998 21.7676L152.739 6.65137H159.496L154.941 18.6235H158.724C159.439 18.6235 159.797 18.3211 160.004 17.7366L160.983 15.1568C161.133 14.6932 161.039 14.2297 160.249 14.2297H157.821L158.95 11.3676H165.538C167.928 11.3676 168.38 13.363 167.683 15.2979L165.876 20.0746C165.481 21.0824 164.427 21.808 162.752 21.808L146.998 21.7676Z" fill="white"/>
<path d="M139.056 21.7676H132.299L136.835 9.79555H130.36L131.546 6.65137H150.669L149.483 9.79555H143.592L139.056 21.7676Z" fill="white"/>
<path d="M110.032 21.7676C108.282 21.7676 106.964 20.3568 107.604 18.5227L111.312 8.76765C111.877 7.25602 113.006 6.65137 114.437 6.65137H118.728H126.332C128.289 6.65137 129.607 7.75989 129.042 9.31183L126.577 15.7816H116.564L117.599 12.9397H120.893L121.702 10.7831C121.965 10.1583 121.627 9.79555 120.911 9.79555H118.935C118.069 9.79555 117.505 10.118 117.185 10.9847L114.286 18.6033H125.447L124.262 21.7475L110.032 21.7676Z" fill="white"/>
<path d="M69.7548 19.0259L73.6132 8.8678C74.2908 7.2957 75.6083 6.6709 77.227 6.6709H90.0258C91.4939 6.6709 92.1715 7.61819 91.6256 9.41198L87.7672 19.5701C87.0896 21.1422 85.7721 21.767 84.1534 21.767H71.3546C69.8865 21.767 69.2089 20.8197 69.7548 19.0259ZM80.3326 18.6228C80.8784 18.6228 81.349 18.4616 81.7442 17.6554L84.1722 11.2864C84.5863 10.1779 84.0405 9.83524 83.4194 9.81508H81.0666C80.5208 9.81508 80.0503 9.97633 79.655 10.7825L77.227 17.1314C76.8129 18.2399 77.3588 18.5825 77.9799 18.6027L80.3326 18.6228Z" fill="white"/>
</svg>
