<svg width="356" height="50" viewBox="0 0 356 50" fill="none" xmlns="http://www.w3.org/2000/svg">
<g clip-path="url(#clip0)">
<path d="M329.818 10.4762L331.248 0L328.134 1.20635L322.193 13.3333L329.818 10.4762Z" fill="black"/>
<path d="M314.09 29.2699L325.529 37.8413L327.436 24.762L314.09 29.2699Z" fill="black"/>
<path d="M316.95 15.7142L324.576 2.38086L321.462 3.58721L312.184 12.3809L316.95 15.7142Z" fill="black"/>
<path d="M308.148 31.4287L311.008 26.6667L288.607 34.762L282.157 40.9525L308.148 31.4287Z" fill="black"/>
<path d="M355.556 10.4761H346.977L318.602 20.6348L304.558 10.4761H288.353L310.976 26.6665L355.556 10.4761Z" fill="#E2001A"/>
<path d="M196.111 44.2856H274.022L273.069 48.0952H195.412L196.111 44.2856Z" fill="#E2001A"/>
<path d="M0 34.2856L22.0197 13.3967C23.9261 11.4602 26.2139 10.4761 30.6305 10.4761H44.1664C49.155 10.4761 49.9176 12.1904 48.4242 15.9681L40.9572 34.2856H29.5502L36.477 17.3332C36.7948 16.4443 36.9854 15.4602 35.3967 15.4602H34.3481C33.522 15.4919 32.9501 15.4919 31.6791 16.73L23.6084 24.3491H31.7744L29.7726 29.3015H18.3974L13.1546 34.2856H0Z" fill="black"/>
<path d="M45.9462 34.2856L55.6374 10.4761H75.0198H77.8795C83.9484 10.4761 85.4418 12.2221 84.6156 14.9205L82.6774 19.6824C81.9466 21.3967 79.4682 21.8729 76.0048 22.1269C79.5635 22.6666 80.9298 23.8412 80.2943 25.5554L77.943 31.3015C77.0533 33.2062 75.4964 34.2539 72.1283 34.2539L45.9462 34.2856ZM67.807 28.1904L68.9508 25.365C69.205 24.7935 69.0144 24.3808 67.9976 24.3808H63.0726L64.8202 19.9046H69.777C70.7938 19.9046 71.3657 19.5237 71.5881 18.984L72.3825 16.984C72.732 16.0316 72.2872 15.4285 71.3339 15.4285H65.0426L59.3867 29.3015H65.7416C66.6631 29.3332 67.4892 28.984 67.807 28.1904Z" fill="black"/>
<path d="M102.599 34.2856H91.1916L98.881 15.4285H87.9506L89.9206 10.4761H122.203L120.202 15.4285H110.256L102.599 34.2856Z" fill="black"/>
<path d="M152.549 28.6983L158.427 14.2856C159.698 11.238 162.685 10.4761 165.99 10.4761H185.817L183.815 15.4285H172.027C170.406 15.4285 168.913 16.2539 168.023 18.73L164.687 26.9205C163.924 28.8253 164.623 29.3015 166.752 29.3015H178.096L176.094 34.2539H156.68C153.756 34.2856 151.278 32.0634 152.549 28.6983Z" fill="black"/>
<path d="M248.158 34.2856L257.849 10.4761H269.256L261.567 29.3332H267.954C269.161 29.3332 269.765 28.857 270.114 27.9364L271.767 23.8729C272.021 23.1427 271.862 22.4126 270.527 22.4126H266.428L268.335 17.9046H279.456C283.491 17.9046 284.254 21.0475 283.078 24.0951L280.028 31.6189C279.361 33.2062 277.581 34.3491 274.753 34.3491L248.158 34.2856Z" fill="black"/>
<path d="M234.75 34.2856H223.343L231 15.4285H220.07L222.072 10.4761H254.354L252.353 15.4285H242.407L234.75 34.2856Z" fill="black"/>
<path d="M185.754 34.2856C182.799 34.2856 180.575 32.0634 181.655 29.1745L187.915 13.8094C188.868 11.4285 190.775 10.4761 193.189 10.4761H200.434H213.271C216.575 10.4761 218.799 12.2221 217.846 14.6666L213.684 24.857H196.78L198.527 20.3808H204.088L205.454 16.984C205.899 15.9999 205.327 15.4285 204.12 15.4285H200.783C199.322 15.4285 198.369 15.9364 197.828 17.3015L192.935 29.3015H211.777L209.776 34.2539L185.754 34.2856Z" fill="black"/>
<path d="M117.757 29.9679L124.271 13.9679C125.415 11.4917 127.639 10.5076 130.371 10.5076H151.978C154.456 10.5076 155.6 11.9996 154.679 14.825L148.165 30.825C147.021 33.3012 144.797 34.2853 142.064 34.2853H120.458C117.979 34.2853 116.836 32.7933 117.757 29.9679ZM135.614 29.333C136.536 29.333 137.33 29.079 137.997 27.8092L142.096 17.7774C142.795 16.0314 141.874 15.4917 140.825 15.4599H136.853C135.932 15.4599 135.138 15.7139 134.47 16.9838L130.371 26.9838C129.672 28.7298 130.594 29.2695 131.642 29.3012L135.614 29.333Z" fill="black"/>
<path d="M3.43164 46.4126H4.28954C5.17923 46.4126 5.65584 46.5078 5.62407 46.984C5.59229 47.4602 5.43342 47.9999 4.28954 47.9999H3.11389L3.43164 46.4126ZM4.03535 43.4285H4.98858C5.78294 43.4285 5.97359 43.5872 5.97359 43.9047C5.97359 44.1904 5.81471 44.8253 4.86148 44.857H3.74938L4.03535 43.4285ZM0 49.9999H4.00357C4.54374 49.9999 5.0839 49.9364 5.56052 49.8412C6.03714 49.7459 6.48198 49.5555 6.86327 49.3332C7.24456 49.0793 7.56231 48.7618 7.78473 48.3808C8.00715 47.9999 8.13425 47.492 8.13425 46.9205C8.13425 46.6666 8.10247 46.4761 8.03892 46.2539C7.97537 46.0634 7.84828 45.8729 7.6894 45.7459C7.53053 45.6189 7.33989 45.492 7.11747 45.4285C8.00715 45.0158 8.67441 43.8729 8.61086 43.0793C8.57909 42.0951 8.00715 41.4602 5.68762 41.4285H1.74759L0 49.9999Z" fill="black"/>
<path d="M12.2339 47.0793L13.6955 43.9999L13.9497 47.0793H12.2339ZM12.8694 41.4285L8.16675 49.9999H10.804L11.3442 48.857H14.0132L14.1086 49.9999H16.7776L15.602 41.4285H12.8694Z" fill="black"/>
<path d="M22.0504 41.4285H19.4767L17.7291 49.9999H29.1044L30.852 41.4285H28.2782L26.9437 47.9999H25.1008L26.4353 41.4285H23.8616L22.5271 47.9999H20.7159L22.0504 41.4285Z" fill="black"/>
<path d="M34.0937 47.0793L35.5554 43.9999L35.8096 47.0793H34.0937ZM34.7292 41.4285L30.0266 49.9999H32.6639L33.2041 48.857H35.8731L35.9684 49.9999H38.6375L37.4618 41.4285H34.7292Z" fill="black"/>
<path d="M44.3898 41.4285L46.1374 47.492C46.0103 47.6507 45.6925 48.1904 44.8664 47.8412L44.4533 49.7459C46.9635 50.7301 48.1392 48.4126 48.5204 47.9364L52.9371 41.4285H50.0456L48.0438 44.7301L47.4401 41.4285H44.3898Z" fill="black"/>
<path d="M62.6899 41.4285L60.9423 49.9999H67.8055L68.2186 47.9999H64.0562L64.3421 46.6666H67.742L68.155 44.6666H64.7552L65.0094 43.4285H69.013L69.426 41.4285H62.6899Z" fill="black"/>
<path d="M73.1449 43.4285C74.2887 43.3967 75.242 43.4285 75.1784 44.1904C75.1149 45.4602 73.971 45.365 72.7636 45.3332L73.1449 43.4285ZM72.3505 47.3332H73.7168C77.4026 47.3332 77.8157 44.5078 77.8157 43.6189C77.8475 42.4126 77.0213 41.4285 74.8289 41.4285H70.8571L69.1095 49.9999H71.8103L72.3505 47.3332Z" fill="black"/>
<path d="M79.563 41.4285L77.8154 49.9999H84.6787L85.0918 47.9999H80.9293L81.2153 46.6666H84.6151L85.0282 44.6666H81.6284L81.8826 43.4285H85.8861L86.2992 41.4285H79.563Z" fill="black"/>
<path d="M90.4305 41.4285H87.7296L85.9821 49.9999H88.6829L89.4137 46.4126H91.9556L91.2248 49.9999H93.9257L95.6732 41.4285H92.9724L92.3687 44.4126H89.8268L90.4305 41.4285Z" fill="black"/>
<path d="M99.9627 41.4285H97.2619L95.5143 49.9999H98.2151L98.9459 46.4126H101.488L100.757 49.9999H103.458L105.205 41.4285H102.505L101.901 44.4126H99.359L99.9627 41.4285Z" fill="black"/>
<path d="M129.607 43.4285H132.022L132.435 41.4285H124.904L124.491 43.4285H126.906L125.572 49.9999H128.272L129.607 43.4285Z" fill="black"/>
<path d="M158.649 41.4285L156.901 49.9999H159.602L160.936 43.4285H163.478L162.144 49.9999H164.845L166.592 41.4285H158.649Z" fill="black"/>
<path d="M181.146 43.4285H183.561L183.974 41.4285H176.443L176.03 43.4285H178.445L177.111 49.9999H179.812L181.146 43.4285Z" fill="black"/>
<path d="M190.552 41.4285L186.58 46.3491L187.724 41.4285H185.15L183.403 49.9999H185.913L189.885 45.0793L188.741 49.9999H191.314L193.062 41.4285H190.552Z" fill="black"/>
<path d="M55.4779 46.4126H56.3358C57.2254 46.4126 57.7021 46.5078 57.6703 46.984C57.6385 47.4602 57.4796 47.9999 56.3358 47.9999H55.1601L55.4779 46.4126ZM56.1133 43.4285H57.0666C57.8609 43.4285 58.0516 43.5872 58.0516 43.9047C58.0516 44.1904 57.8927 44.8253 56.9395 44.857H55.8274L56.1133 43.4285ZM52.078 49.9999H56.0816C56.6217 49.9999 57.1619 49.9364 57.6385 49.8412C58.1151 49.7459 58.56 49.5555 58.9413 49.3332C59.3226 49.0793 59.6403 48.7618 59.8627 48.3808C60.0851 47.9999 60.2122 47.492 60.2122 46.9205C60.2122 46.6666 60.1805 46.4761 60.1169 46.2539C60.0534 46.0634 59.9263 45.8729 59.7674 45.7459C59.6085 45.6189 59.4179 45.492 59.1955 45.4285C60.0851 45.0158 60.7206 43.8729 60.6889 43.0793C60.6571 42.0951 60.0851 41.4602 57.7656 41.4285H53.8256L52.078 49.9999Z" fill="black"/>
<path d="M105.522 45.7142C106.03 43.3332 108 41.4285 110.765 41.4285C113.593 41.4285 114.705 43.3332 114.196 45.7142C113.72 48.0951 111.654 49.9999 108.954 49.9999C106.062 49.9999 105.014 48.0951 105.522 45.7142ZM111.527 45.7142C111.782 44.4443 111.432 43.3967 110.32 43.3967C109.271 43.3967 108.445 44.4443 108.191 45.7142C107.937 46.984 108.286 48.0316 109.398 48.0316C110.415 48.0316 111.273 46.984 111.527 45.7142Z" fill="black"/>
<path d="M115.056 45.7142C115.564 43.3332 117.534 41.4285 120.299 41.4285C122.745 41.4285 123.698 42.7935 123.508 44.7301H120.934C121.029 43.9047 120.648 43.3967 119.854 43.3967C118.805 43.3967 117.979 44.4443 117.725 45.7142C117.471 46.984 117.82 48.0316 118.932 48.0316C119.695 48.0316 120.203 47.4602 120.616 46.6348H123.19C122.491 48.6031 120.871 49.9999 118.519 49.9999C115.564 49.9999 114.547 48.0951 115.056 45.7142Z" fill="black"/>
<path d="M134.946 47.9999C136.09 48.0316 137.107 48.0634 137.266 47.238C137.456 46.2856 136.535 46.3808 135.296 46.4126L134.946 47.9999ZM135.677 44.4126H137.043C140.252 44.4126 140.062 46.9205 139.712 47.8094C139.236 49.0158 138.028 49.9999 135.836 49.9999H131.864L133.58 41.4285H136.281L135.677 44.4126Z" fill="black"/>
<path d="M147.655 46.4126H148.513C149.403 46.4126 149.879 46.5078 149.848 46.984C149.816 47.4602 149.657 47.9999 148.513 47.9999H147.337L147.655 46.4126ZM148.259 43.4285H149.212C150.006 43.4285 150.197 43.5872 150.197 43.9047C150.197 44.1904 150.038 44.8253 149.085 44.857H147.973L148.259 43.4285ZM144.224 49.9999H148.227C148.767 49.9999 149.307 49.9364 149.784 49.8412C150.261 49.7459 150.705 49.5555 151.087 49.3332C151.468 49.0793 151.786 48.7618 152.008 48.3808C152.231 47.9999 152.358 47.492 152.358 46.9205C152.358 46.6666 152.326 46.4761 152.262 46.2539C152.199 46.0634 152.072 45.8729 151.913 45.7459C151.754 45.6189 151.563 45.492 151.341 45.4285C152.231 45.0158 152.866 43.8729 152.834 43.0793C152.803 42.0951 152.231 41.4602 149.911 41.4285H145.971L144.224 49.9999Z" fill="black"/>
<path d="M167.451 41.4285L169.199 47.492C169.072 47.6507 168.754 48.1904 167.928 47.8412L167.515 49.7459C170.025 50.7301 171.2 48.4126 171.582 47.9364L175.998 41.4285H173.107L171.105 44.7301L170.501 41.4285H167.451Z" fill="black"/>
</g>
<defs>
<clipPath id="clip0">
<rect width="355.556" height="50" fill="white"/>
</clipPath>
</defs>
</svg>
