<svg width="22" height="22" viewBox="0 0 22 22" xmlns="http://www.w3.org/2000/svg">
    <path d="M21.463 7.895c-.049-.026-.073-.051-.098-.076L11.281.095a.5.5 0 0 0-.586 0L.635 7.819c-.025.025-.049.025-.073.05l-.025.026A1.461 1.461 0 0 0 0 9.06V20.53C0 21.341.635 22 1.416 22h19.168c.781 0 1.416-.658 1.416-1.469V9.06c0-.482-.22-.887-.537-1.165zm-.88 13.092h-.585l-6.764-5.115c-.317-.254-.854-.659-1.172-.912l-.488-.38a.949.949 0 0 0-.586-.177c-.22 0-.415.05-.586.177l-.489.38c-.317.253-.854.658-1.172.912l-6.714 5.115H1.44a.446.446 0 0 1-.44-.456h.025l7.154-5.47c.097-.076.22-.177.342-.253-.122-.101-.245-.177-.342-.253L.977 9.06H.952c0-.152.074-.279.171-.355l.025-.025a.402.402 0 0 1 .244-.076h.586l6.739 5.115c.17.127.366.279.586.456l.488-.38c.318-.253.733-.38 1.172-.38.44 0 .855.127 1.172.38l.489.38c.22-.152.415-.33.586-.456l6.739-5.115h.586c.098 0 .17.025.244.076l.049.025c.098.076.17.203.17.355h-.024l-7.154 5.47c-.098.075-.22.177-.342.253.122.101.245.177.342.253L21 20.506l.024.025a.446.446 0 0 1-.44.456z"/>
</svg>
