<svg width="24" height="24" viewBox="0 0 24 24" xmlns="http://www.w3.org/2000/svg">
    <path d="M24 12.001a11.97 11.97 0 0 1-3.513 8.486A11.97 11.97 0 0 1 12 24a11.961 11.961 0 0 1-8.485-3.513A11.962 11.962 0 0 1 0 12c0-3.315 1.342-6.314 3.516-8.485A11.953 11.953 0 0 1 12 0c3.313 0 6.312 1.342 8.486 3.516A11.961 11.961 0 0 1 24 12zm-4.928 7.07a9.973 9.973 0 0 0 2.93-7.07 9.98 9.98 0 0 0-2.93-7.073 9.97 9.97 0 0 0-7.07-2.926 9.977 9.977 0 0 0-7.074 2.926 9.977 9.977 0 0 0-2.926 7.073 9.97 9.97 0 0 0 2.926 7.07 9.98 9.98 0 0 0 7.073 2.93c2.76 0 5.262-1.12 7.07-2.93z"/>
    <path fill-rule="evenodd" clip-rule="evenodd" d="M10.136 14.316c0-.913.101-1.632.307-2.156a3.41 3.41 0 0 1 1.004-1.378c.464-.389.813-.74 1.05-1.061a1.73 1.73 0 0 0 .367-1.069c0-.943-.406-1.415-1.22-1.415-.375 0-.677.138-.909.412-.232.276-.354.649-.365 1.118H7.201c.013-1.25.407-2.223 1.18-2.916.775-.701 1.864-1.05 3.264-1.05 1.394 0 2.47.32 3.234.964.769.644 1.154 1.56 1.154 2.747 0 .52-.104.993-.31 1.417-.206.425-.537.858-.995 1.303l-1.077 1.004c-.307.292-.518.597-.638.91-.117.304-.185.695-.196 1.17h-2.681zm-.386 2.85c0-.463.167-.841.498-1.133.336-.302.756-.45 1.256-.45s.915.148 1.246.45c.338.292.508.67.508 1.134 0 .461-.17.844-.508 1.144-.331.292-.746.44-1.246.44s-.92-.148-1.256-.44a1.479 1.479 0 0 1-.498-1.144z"/>
</svg>
