<svg width="30" height="30" viewBox="0 0 30 30" xmlns="http://www.w3.org/2000/svg">
    <g clip-path="url(#a)">
        <path d="M10.756 26.707c-1.097 0-1.463-.366-1.463-1.463 0-.732.366-1.463 1.463-1.463.732 0 1.463.731 1.463 1.463 0 1.097-.731 1.463-1.463 1.463zm4.39-21.22c0-1.829-.731-3.292-1.829-4.024h-.366v3.659c0 .732-.366 1.097-.732 1.097-.365.366-1.097.366-1.463.366-.732 0-1.097 0-1.463-.366-.732 0-.732-.365-.732-1.097V1.463h-.366C6.732 2.195 6 3.66 6 5.488c0 1.829 1.098 3.658 2.927 4.39v12.805c-1.098.366-1.83 1.463-1.83 2.56 0 1.83 1.464 3.66 3.293 3.66 2.195 0 3.659-1.464 3.659-3.66 0-1.097-.732-2.194-1.464-2.56V9.513c1.464-.367 2.561-2.196 2.561-4.025zM20.634 6.22v9.512s0 .366.366.366h.732c.366 0 .366-.366.366-.366V6.22c0-.732.366-1.464.731-1.83V3.66L22.098 0h-1.83l-.365 3.659v.731c.365.366.731 1.098.731 1.83zM24.659 17.927v-1.098c0-.366-.366-.366-.732-.366h-5.488c-.366 0-.366 0-.366.366v1.464c1.098 1.097 1.098 2.56 0 3.658v6.951c0 .366 0 .732.366.732.732.366 1.83.366 2.927.366 1.098 0 2.195 0 2.927-.366.366 0 .366-.366.366-.732v-6.951c-1.098-1.097-1.098-2.56 0-3.658v-.366z"/>
    </g>
    <defs>
        <clipPath id="a">
            <path d="M0 0h30v30H0z"/>
        </clipPath>
    </defs>
</svg>
