<svg width="18" height="18" viewBox="0 0 18 18" xmlns="http://www.w3.org/2000/svg">
    <path d="M14.413 5.91c.215.618.162 1.261-.134 1.663l-8.904 8.905L.09 17.927c-.08.026-.108 0-.08-.08l1.501-5.231 8.905-8.905c.402-.322 1.046-.349 1.663-.107l-9.763 9.763-.027.027-.617 1.958s.295.107.563.375c.268.268.35.59.35.59l2.01-.617 9.817-9.79zM3.792 13.42l9.28-9.28c.161.08.322.215.43.349.16.134.268.268.375.43l-9.307 9.28-.751-.027-.027-.751zm13.33-8.69l-1.716 1.744s.831-1.287-.912-2.977c-1.529-1.53-2.977-.859-2.977-.859L13.26.895c1.073-1.1 2.817-1.234 3.943-.134 1.153 1.153.992 2.923-.08 3.97z"/>
</svg>
