<svg width="22" height="22" viewBox="0 0 22 22" xmlns="http://www.w3.org/2000/svg">
    <path fill-rule="evenodd" clip-rule="evenodd" d="M22 11c0 6.075-4.925 11-11 11S0 17.075 0 11 4.925 0 11 0s11 4.925 11 11zM8.815 13.185C6.702 11.067 5.53 8.94 5.5 7.026c0-.366.075-.616.556-.936l.851-.521c.366-.205.641.09.826.34L8.97 7.742c.345.614.071.932-.253 1.308-.062.072-.126.146-.188.224-.572.7.467 1.745 1.394 2.675l.064.064.02.02c.936.942 2.008 2.02 2.719 1.443.078-.062.152-.126.223-.188.377-.325.695-.598 1.309-.253l1.833 1.237c.25.185.55.44.34.826l-.52.851c-.321.476-.572.551-.937.551-1.913-.03-4.041-1.202-6.16-3.315z"/>
</svg>
