<svg width="24" height="24" viewBox="0 0 24 24" xmlns="http://www.w3.org/2000/svg">
    <path d="M15.724 16.138a.414.414 0 0 1-.414.414H8.69a.414.414 0 1 1 0-.828h6.62c.229 0 .414.185.414.414zm-.414 2.069H8.69a.414.414 0 0 0 0 .828h6.62a.414.414 0 1 0 0-.828zm-1.655 2.483H8.69a.414.414 0 1 0 0 .827h4.965a.414.414 0 1 0 0-.827zM24 9.517v6.62a2.069 2.069 0 0 1-2.069 2.07h-4.552v5.38a.414.414 0 0 1-.414.413h-9.93a.414.414 0 0 1-.414-.414v-5.38H2.069A2.069 2.069 0 0 1 0 16.139v-6.62c0-1.143.926-2.07 2.069-2.07h4.552V.414c0-.229.185-.414.413-.414h7.556c.072.015.137.05.19.1l2.483 2.482c.05.053.084.12.1.19v.05a.411.411 0 0 1 0 .05v4.551h4.568A2.07 2.07 0 0 1 24 9.517zm-9.103-7.034h1.067l-1.067-1.068v1.068zM7.448 7.448h9.104V3.31h-2.07a.414.414 0 0 1-.413-.413V.827h-6.62v6.621zm11.587 6.207a.414.414 0 0 0-.414-.414H5.379a.414.414 0 1 0 0 .828h1.655c.229 0 .414.185.414.414v8.69h9.104v-8.69c0-.229.185-.414.413-.414h1.656a.414.414 0 0 0 .414-.414zm2.482-3.724a.828.828 0 1 0-1.655 0 .828.828 0 0 0 1.655 0z"/>
</svg>
