<svg width="90" height="90" viewBox="0 0 90 90" fill="none" xmlns="http://www.w3.org/2000/svg">
<path d="M56.032 22.8799C52.705 22.8799 49.636 23.9269 46.962 25.9729L46.566 26.2849C46.046 26.7089 45.546 27.1679 45.068 27.6609L45 27.7329L44.932 27.6609C44.335 27.0449 43.703 26.4809 43.039 25.9729C40.365 23.9269 37.295 22.8789 33.968 22.8789C29.554 22.8789 25.472 24.6369 22.503 27.8219C19.593 30.9449 18 35.1839 18 39.7419C18 44.2849 19.653 48.4379 23.098 52.6779L23.426 53.0759C25.881 56.0059 28.376 58.3189 34.534 63.5359L39.861 68.0429C40.509 68.5959 41.107 69.1099 41.759 69.6729C42.656 70.4509 43.808 70.8789 45 70.8789C46.192 70.8789 47.343 70.4509 48.242 69.6729L50.256 67.9429L56.538 62.6259C61.926 58.0369 64.267 55.8299 66.574 53.0759C70.243 48.6979 72 44.4269 72 39.7419C72 35.1829 70.407 30.9449 67.497 27.8219C64.528 24.6369 60.446 22.8789 56.032 22.8789V22.8799ZM56.032 24.8799C59.894 24.8799 63.445 26.4089 66.033 29.1849C68.591 31.9299 70 35.6799 70 39.7419C70 43.9249 68.425 47.7539 65.041 51.7919C62.499 54.8259 59.023 57.8979 54.991 61.3199L50.837 64.8269C49.599 65.8739 48.282 66.9939 46.932 68.1619C46.398 68.6239 45.712 68.8789 45 68.8789C44.288 68.8789 43.602 68.6239 43.067 68.1609L41.73 67.0109C41.29 66.6329 40.854 66.2609 40.426 65.8979L35.01 61.3199C30.977 57.8979 27.501 54.8249 24.96 51.7899C21.575 47.7549 20 43.9259 20 39.7429C20 35.6799 21.409 31.9309 23.966 29.1859C26.554 26.4099 30.106 24.8799 33.968 24.8799C36.854 24.8799 39.497 25.7829 41.824 27.5629C42.998 28.4609 44.062 29.5609 45 30.8429C45.938 29.5599 47.002 28.4609 48.176 27.5629C50.503 25.7829 53.146 24.8799 56.032 24.8799Z" fill="#333333"/>
<path d="M61.827 32.9019C59.757 30.6309 56.915 29.3789 53.826 29.3789C51.517 29.3789 49.402 30.1179 47.541 31.5739C46.601 32.3089 45.751 33.2079 45 34.2579C44.25 33.2079 43.398 32.3089 42.459 31.5739C40.598 30.1179 38.483 29.3789 36.174 29.3789C33.085 29.3789 30.244 30.6309 28.173 32.9019C26.127 35.1479 25 38.2149 25 41.5399C25 44.9619 26.26 48.0949 28.967 51.3979C31.389 54.3539 34.868 57.3539 38.898 60.8279C40.274 62.0139 41.834 63.3589 43.454 64.7919C43.882 65.1709 44.431 65.3789 45 65.3789C45.57 65.3789 46.118 65.1709 46.546 64.7919C48.166 63.3589 49.726 62.0139 51.103 60.8269C55.132 57.3539 58.612 54.3539 61.033 51.3979C63.74 48.0949 65 44.9619 65 41.5399C65 38.2149 63.873 35.1479 61.827 32.9019Z" fill="#61D0BD"/>
<path fill-rule="evenodd" clip-rule="evenodd" d="M44.796 73.588C44.746 74.253 44.746 74.92 44.796 75.585C44.796 75.585 44.196 77.756 44.196 77.93C44.191 79.61 43.112 81.15 41.396 81.925C40.296 82.62 39.396 78.277 39.396 77.93C39.14 76.2 39.14 74.45 39.396 72.72C39.396 72.72 39.996 72.72 40.396 72.198C41.996 71.678 44.396 72.198 44.796 73.588ZM65.722 65C66.995 65.692 68.169 66.503 69.222 67.417C70.022 68.333 70.522 68.333 71.222 69.417C71.922 70.5 71.222 70.583 71.722 70.75C71.93 72.161 71.93 73.589 71.722 75C68.476 73.034 65.865 70.429 64.122 67.417C64.622 67.417 64.122 66.5 65.022 66.167L65.722 65ZM18.048 63C18.723 63 19.145 63.865 19.482 64.298H20.072V68.02L20.4 67.897L20.372 67.92C19.515 68.6 18.038 70.134 17.626 70.616C17.036 71.308 9.952 76.847 11.132 72.087L11.554 71.049L14.759 67.068V66.029C14.759 65.683 15.518 65.596 15.771 65.337C16.024 65.077 15.771 65.337 15.771 64.731C16.318 63.907 17.121 63.296 18.048 63ZM74.533 45.682C76.736 45.782 85.837 47.082 86.987 50.282H86.795C87.068 50.848 87.068 51.516 86.795 52.082C83.729 53.082 82.485 50.682 80.377 49.882C78.269 49.082 75.299 49.882 74.054 48.882C72.808 47.882 72.329 45.582 74.533 45.682ZM15 47.296C15 47.296 13.558 49.096 13.27 48.896C12.98 48.696 12.02 47.596 11.538 47.496C9.855 47.498 8.178 47.699 6.538 48.096C6.086 47.063 5.572 46.061 5 45.096C5.786 43.899 7.07 43.158 8.462 43.096C11.264 42.966 13.857 44.632 15 47.296ZM81.207 22.203C81.857 22.203 82.32 22.203 82.784 23.403C84.268 26.603 77.684 29.203 75.921 30.303C74.159 31.403 74.716 31.603 74.067 31.803H73.139C72.954 30.746 72.954 29.66 73.139 28.603C74.252 27.203 78.519 22.003 81.207 22.203ZM9.052 24.06C13.252 24.06 16.252 25.06 13.952 30.06C12.752 29.46 11.352 28.26 10.352 27.86C8.96 27.643 7.543 27.643 6.152 27.86C5.092 27.86 5.146 25.257 5.42 24.533L5.452 24.46L5.752 24.06C6.846 23.897 7.958 23.897 9.052 24.06ZM50.943 8C53.843 9.224 53.543 13.597 52.043 16.746C52.043 17.62 52.043 18.495 50.643 18.845C49.243 19.195 49.643 18.845 48.843 18.845C48.878 18.233 48.878 17.62 48.843 17.008L50.043 8.875C50.043 8.875 51.143 8.875 51.243 8.35L50.943 8ZM25.55 10.008L25.65 10.408C29.05 8.808 30.75 16.008 31.05 17.908C30.254 18.02 29.446 18.02 28.65 17.908C27.471 17.908 23.594 11.257 25.441 10.068L25.55 10.008Z" fill="#61D0BD"/>
<path d="M37 34.446C33.212 34.99 30.286 38.588 30.286 42.946C30.286 43.566 30.345 44.17 30.457 44.752C30.112 45.213 29.787 45.697 29.488 46.201C29.172 45.181 29 44.086 29 42.946C29 37.777 32.529 33.525 37.055 33C37.019 33.477 37 33.959 37 34.446Z" fill="white"/>
</svg>
