<svg width="300" height="158" viewBox="0 0 300 158" fill="none" xmlns="http://www.w3.org/2000/svg">
<path fill-rule="evenodd" clip-rule="evenodd" d="M152.67 67.4046C150.129 66.1274 149.068 62.9329 145.209 63.7088C142.59 64.2354 136.638 64.3896 134.72 66.3176C131.869 69.1837 125.016 80.9659 126.502 85.4491C127.108 87.2754 128.432 89.3288 129.206 90.8842C130.185 92.854 136.725 96.8796 139.37 95.9932C141.093 95.4158 144.118 93.4882 146.074 94.4714C147.142 95.0083 147.599 96.5478 148.345 97.2976C150.174 99.1362 149.034 103.574 150.183 105.885C150.444 106.409 151.127 108.445 150.832 109.037C149.898 110.915 148.595 112.793 149.102 115.342C149.669 118.191 152.065 120.5 152.562 123.495C152.84 125.173 153.688 131.561 155.157 132.3C162.61 136.046 168.94 126.27 172.782 122.408C174.078 121.105 172.06 116.794 172.891 115.125C173.966 112.962 176.18 111.4 176.891 109.255C177.08 108.685 174.906 106.351 174.513 105.559C173.452 103.427 179.958 97.2976 180.568 97.2976C182.345 97.1889 184.912 88.1856 184.136 87.4057C182.522 85.7827 177.703 88.4388 175.81 86.5361C171.888 82.5928 170.135 71.809 166.943 68.6003C166.319 67.9724 161.252 67.8256 160.239 67.622C158.241 67.622 154.445 68.2967 152.67 67.4046Z" fill="#E1E1E1"/>
<path fill-rule="evenodd" clip-rule="evenodd" d="M182.845 110.883C178.284 112.46 177.492 122.02 180.531 125.172C180.861 125.514 181.975 121.086 182.214 120.591C183.527 117.866 185.77 113.159 182.845 110.883Z" fill="#E1E1E1"/>
<path fill-rule="evenodd" clip-rule="evenodd" d="M150.841 8.26952C150.659 9.00031 149.877 11.6841 150.201 12.3343C150.643 13.22 152.778 12.2898 153.507 12.6553C158.07 14.9437 165.279 7.94861 158.412 7.94861C157.382 7.94861 156.351 7.94861 155.32 7.94861C153.769 7.94861 152.419 8.04345 150.841 8.26952Z" fill="#2B2B9F"/>
<path fill-rule="evenodd" clip-rule="evenodd" d="M192.866 15.1073C191.786 15.8361 190.728 16.4944 189.905 17.3281C189.325 17.9144 186.191 21.0085 186.724 21.5475C188.333 23.1769 194.674 17.9406 195.937 16.6618C196.723 15.8664 198.618 16.0579 199.338 15.3294C199.383 15.2832 199.383 14.2652 199.338 14.219C198.366 13.2354 193.43 14.8972 192.866 15.1073Z" fill="#E1E1E1"/>
<path fill-rule="evenodd" clip-rule="evenodd" d="M123.824 29.0125C124.958 29.0125 126.093 29.0125 127.227 29.0125C133.479 29.0125 129.606 32.2814 127.972 33.9765C127.32 34.6523 118.741 33.6222 121.165 31.1084C121.858 30.3887 122.581 29.922 123.824 29.0125Z" fill="#2B2B9F"/>
<path fill-rule="evenodd" clip-rule="evenodd" d="M138.541 37.1662C134.564 35.8754 137.996 41.0282 137.996 42.7851C137.996 43.5261 136.554 45.9394 137.125 46.4958C137.232 46.5998 143.529 44.4613 141.916 42.8912C140.619 41.6279 139.353 39.0438 138.541 37.1662Z" fill="#2B2B9F"/>
<path fill-rule="evenodd" clip-rule="evenodd" d="M134.48 43.6941C133.789 41.3829 132.384 44.8706 132.692 46.2417C133.087 48.003 135.218 47.8077 134.48 43.6941Z" fill="#2B2B9F"/>
<path fill-rule="evenodd" clip-rule="evenodd" d="M138.283 49.6714C137.961 50.9565 138.839 54.7445 138.066 55.5167C135.838 57.7428 133.796 52.9903 132.432 58.4394C131.099 63.768 137.55 64.3679 140.45 61.4703C142.472 59.4506 139.476 56.5989 144.351 54.9755C147.085 54.0648 148.709 56.6434 150.852 57.3569C153.152 58.1229 154.215 56.2761 155.836 56.8157C158.603 57.7374 161.125 60.2355 164.07 58.7641C165.464 58.0679 164.247 54.9166 165.696 54.4343C166.858 54.0472 170.585 54.515 171.113 53.46C172.452 50.7853 164.935 49.8902 166.454 48.3725C168.571 46.2577 172.529 44.2447 174.038 41.2282C175.314 38.6801 174.632 35.6088 175.339 32.785C175.576 31.835 176.251 29.196 175.772 28.2386C174.961 26.6174 170.085 25.5463 168.296 25.0995C162.66 23.6918 158.973 21.5837 153.019 24.5582C151.732 25.201 150.63 30.0853 149.66 31.3778C147.593 34.1311 143.999 33.9226 146.193 38.3055C146.414 38.7474 146.072 39.8093 146.409 40.1457C147.347 41.0827 149.506 39.0182 149.768 39.2798C150.845 40.3555 148.286 41.3364 151.502 41.3364C152.44 41.3364 154.238 41.6339 154.752 41.1199C155.106 40.7667 155.209 38.7995 155.511 38.1973C155.714 37.7919 157.351 37.2204 156.919 36.3571C156.333 35.186 155.445 34.3447 155.836 32.785C156.029 32.0107 158.994 28.9041 160.17 30.0788C161.56 31.4683 157.751 33.2223 158.328 34.9499C158.854 36.5262 162.391 35.7602 161.903 38.1973C160.877 43.3238 151.197 43.1126 148.035 44.6921C147.479 44.9698 145.379 44.5305 145.109 44.8003C144.51 45.3992 145.098 47.2033 144.676 48.0477C144.597 48.2054 139.377 49.6167 138.283 49.6714Z" fill="#2B2B9F"/>
<path fill-rule="evenodd" clip-rule="evenodd" d="M174.895 44.4047C173.944 46.3135 170.117 46.4474 169.287 48.1136C168.983 48.724 171.283 49.8604 171.581 50.16C172.953 51.5369 176.669 56.1997 175.659 59.2405C175.138 60.8087 162.446 59.194 164.189 62.6937C165.545 65.4147 170.164 63.0622 171.709 64.6121C172.838 65.746 170.324 71.1517 171.581 72.4137C176.261 77.1106 174.097 87.5886 183.434 85.7147C187.246 84.9496 188.544 83.3998 190.953 80.9826C192.64 79.2895 191.347 73.0146 196.433 74.7158C204.031 77.2574 202.934 80.9848 205.991 87.1216C206.709 88.562 206.462 90.9766 207.494 91.9729C208.525 92.9691 210.436 84.9789 211.089 83.6684C212.729 80.378 215.68 79.3169 218.226 76.7621C218.402 76.5853 218.891 76.9178 218.991 77.0179C221.098 79.1323 220.569 82.9504 222.559 84.9473C224.917 87.3139 228.853 87.2989 231.098 89.5516C231.95 89.6795 232.713 91.0433 233.647 90.5747C233.698 90.5489 233.647 89.685 233.647 89.6795C233.647 87.144 231.468 83.1826 232.627 80.8547C233.314 79.4764 235.441 79.5264 236.706 78.6805C240.272 76.2947 243.187 73.4553 245.882 70.751C247.734 68.8917 245.574 63.0246 244.225 61.6705C244.178 61.6234 243.764 60.8544 243.97 60.6473C246.006 58.6038 249.993 64.0672 250.852 63.2052C251.773 62.2815 250.194 60.1922 251.617 59.2405C253.793 57.7849 256.938 57.4814 258.754 55.6594C259.794 54.6151 260.138 51.8954 261.558 51.1831C262.34 50.7903 264.059 50.5908 264.744 49.9042C266.752 47.8884 261.745 45.6755 261.048 44.2768C259.733 41.6381 262.744 39.9019 264.616 38.6494C267.251 36.8866 269.868 38.3551 272.773 37.6263C273.811 37.3659 280.301 34.9671 280.547 35.7079C281.158 37.5469 277.95 38.0783 276.851 38.9052C274.281 40.8396 273.889 44.7575 276.214 47.0905C276.906 47.7848 280.901 41.3822 281.312 40.6958C281.923 39.6728 282.968 38.4686 282.968 37.3705C282.968 37.1541 282.999 36.9714 283.223 36.8589C285.56 35.6866 298.824 29.7718 299.664 28.9294C300.549 28.0409 298.06 25.1676 297.37 25.86C295.937 27.2979 288.794 26.6851 286.919 26.3715C278.864 25.0242 271.111 22.7384 263.087 21.1278C255.86 19.6773 248.831 18.4421 241.421 18.4421C240.677 18.4421 234.47 19.0716 234.157 18.4421C233.603 17.3307 237.594 16.6397 236.961 14.7331C236.488 13.3119 229.974 11.9119 228.422 12.431C221.43 14.7697 214.389 19.2094 206.629 19.2094C204.502 19.2094 201.012 17.9988 199.364 18.8257C196.747 20.1389 195.302 22.1882 191.972 23.3021C186.509 25.1297 181.729 23.7336 177.826 27.6505C179.364 33.8228 177.151 39.8753 174.895 44.4047Z" fill="#E1E1E1"/>
<path fill-rule="evenodd" clip-rule="evenodd" d="M225.52 6.90785C224.422 6.55724 223.087 3.30845 221.44 4.09745C220.452 4.5709 222.963 9.8692 223.862 10.0848C227.555 10.9696 229.15 9.3931 225.52 6.90785Z" fill="#E1E1E1"/>
<path fill-rule="evenodd" clip-rule="evenodd" d="M265.696 55.2429C262.623 56.2769 261.75 60.0361 260.538 62.4819C259.377 64.8277 256.473 65.5502 254.5 66.5459C253.82 66.8893 254.349 68.6921 254.878 68.9589C256.673 69.8654 257.961 67.3389 259.28 66.6729C265.233 63.6679 264.579 61.6322 265.696 55.2429Z" fill="#E1E1E1"/>
<path fill-rule="evenodd" clip-rule="evenodd" d="M228.096 91.927C225.73 88.3915 225.4 96.1483 225.657 97.4255C226.229 100.274 228.239 106.029 231.69 106.888C232.783 107.16 234.58 107.177 235.541 107.655C236.163 107.965 239.101 109.735 239.648 109.19C241.354 107.491 233.165 104.265 232.46 103.563C228.295 99.4138 234.971 96.6358 228.096 91.927Z" fill="#E1E1E1"/>
<path fill-rule="evenodd" clip-rule="evenodd" d="M242.456 92.6014C240.422 92.6014 239.522 95.1927 238.717 96.7709C238.265 97.6563 236.711 98.2303 236.138 98.7925C235.086 99.8231 237.994 102.924 238.588 103.215C239.49 103.656 240.469 102.709 241.296 102.709C241.957 102.709 244.939 103.183 245.293 102.836C246.08 102.065 243.488 98.3325 243.488 97.2763C243.488 94.9203 243.84 95.1423 242.456 92.6014Z" fill="#E1E1E1"/>
<path fill-rule="evenodd" clip-rule="evenodd" d="M262.527 102.395C261.643 101.737 254.969 99.4958 256.914 102.395C258.195 104.305 263.999 106.106 265.971 107.086C266.482 107.34 269.254 110.163 269.798 109.622C271.553 107.878 264.087 102.76 262.527 102.395Z" fill="#E1E1E1"/>
<path fill-rule="evenodd" clip-rule="evenodd" d="M252.123 112.081C249.782 117.966 241.311 116.623 238.818 121.638C238.233 122.813 238.311 124.742 238.311 126.098C238.311 127.308 238.191 128.542 238.564 129.667C241.964 139.924 249.685 127.11 255.291 128.52C259.354 129.541 264.413 138.779 269.358 136.293C271.792 135.069 271.054 131.637 271.639 129.284C271.969 127.956 274.618 125.209 273.92 123.805C272.773 121.499 268.956 120.829 267.71 118.325C265.947 114.779 265.293 111.439 261.501 109.532C259.31 108.43 254.192 111.469 252.123 112.081Z" fill="#E1E1E1"/>
<path fill-rule="evenodd" clip-rule="evenodd" d="M268.078 139.498C262.816 139.498 266.32 146.652 268.078 139.498V139.498Z" fill="#E1E1E1"/>
<path fill-rule="evenodd" clip-rule="evenodd" d="M294.689 138.194C293.635 137.849 292.979 134.934 291.558 135.631C290.814 135.997 281.692 149.988 286.602 148.059C289.089 147.082 289.086 143.742 291.297 142.294C292.821 141.296 293.663 139.806 294.689 138.194Z" fill="#E1E1E1"/>
<path fill-rule="evenodd" clip-rule="evenodd" d="M296.191 125.998C294.891 125.998 292.983 125.736 293.626 127.659C293.776 128.106 296.741 131.583 297.218 131.108C298.107 130.223 296.361 126.336 296.191 125.998Z" fill="#E1E1E1"/>
<path fill-rule="evenodd" clip-rule="evenodd" d="M82.5132 87.4369C81.0457 87.4369 77.9439 87.3325 77.3145 88.6016C76.8671 89.5038 77.2877 92.8993 76.7369 93.4546C74.7087 95.4993 73.2066 98.8907 72.3083 101.608C71.9494 102.693 75.3301 113.972 75.9667 114.613C76.9834 115.638 78.9467 116.065 80.0102 117.137C81.4272 118.566 80.8431 125.683 80.2027 127.619C79.3838 130.096 80.56 133.693 79.4325 135.966C76.1759 142.533 76.4156 154.537 82.7058 157.708C84.457 158.59 83.476 151.129 83.476 150.137C83.476 145.7 85.4609 142.312 88.0971 139.655C90.3545 137.379 95.7955 136.167 97.3392 133.055C98.4487 130.818 100.412 124.327 101.768 122.961C103.53 121.184 106.097 120.925 107.544 119.466C108.579 118.423 106.963 114.811 107.929 113.837C109.254 112.501 113.283 109.102 111.588 105.684C109.865 102.211 106.195 104.712 103.693 102.19C99.3511 97.8123 94.9503 91.668 89.6374 88.9898C87.5466 87.9359 84.9487 88.553 82.5132 87.4369Z" fill="#E1E1E1"/>
<path fill-rule="evenodd" clip-rule="evenodd" d="M93.0417 1.14131C93.0417 6.14565 81.7964 10.2927 83.5965 13.9046C84.6617 16.0419 88.7004 13.2235 90.1503 14.6781C92.6388 17.1747 92.5523 21.9224 94.5838 23.9605C95.4684 24.848 97.8187 23.4896 98.6317 25.1208C100.518 28.9054 95.4227 31.3771 102.487 38.4642C103.155 39.1345 104.632 35.7074 104.8 35.37C105.74 33.483 108.085 30.4348 109.812 29.5686C113.216 27.8611 119.676 25.8608 121.955 23.5737C124.688 20.8326 122.535 13.9016 124.076 10.8104C124.848 9.26051 130.102 5.8841 128.895 3.4619C127.733 1.13132 121.992 2.74582 119.45 2.10822C111.663 0.155257 100.794 -0.979852 93.0417 1.14131Z" fill="#E1E1E1"/>
<path fill-rule="evenodd" clip-rule="evenodd" d="M58.5323 7.20915C57.9233 5.67888 57.383 4.32146 57.383 3.67478C59.436 3.11597 62.0724 3.35275 64.7008 3.5888C67.8188 3.86883 70.9252 4.14782 73.0324 3.09631C73.9989 2.61401 76.8591 1.74653 77.8624 1.74653C78.3614 1.74653 79.0676 1.55418 79.845 1.34243C81.4815 0.896688 83.4335 0.365023 84.4313 1.36088C84.8203 1.74908 84.1402 2.41726 83.8148 2.73693C83.7314 2.81888 83.6713 2.87793 83.6585 2.90348C82.8927 4.43204 81.8251 5.9841 80.758 7.53546C79.6918 9.08541 78.6261 10.6347 77.8624 12.1591C77.514 12.8547 76.5736 13.102 75.7319 13.3234C74.9153 13.5381 74.1916 13.7285 74.1916 14.2801C74.1916 14.669 74.2264 15.1208 74.3848 15.4371C75.7783 18.2186 78.5739 20.0413 81.3378 21.8433C83.0812 22.98 84.8119 24.1084 86.1702 25.464C86.4225 25.7158 86.0773 26.8063 85.977 27.0066C84 30.9528 85.4865 36.0546 86.943 38.9617C87.5771 40.2276 89.2086 41.1991 90.8021 42.1481C91.9009 42.8024 92.9817 43.446 93.7051 44.168C94.1733 44.6353 94.0853 45.516 93.9975 46.3946C93.91 47.2693 93.8228 48.142 94.2847 48.603C94.3534 48.6716 94.4835 48.7753 94.6476 48.9062C95.4089 49.5132 96.9027 50.7044 96.4099 51.6882C96.2271 52.0531 95.8421 52.0738 95.4439 52.0738C92.1695 52.0738 92.0508 51.3475 91.829 49.991C91.731 49.3915 91.6129 48.669 91.1934 47.8317C90.8156 47.0776 85.5893 48.0258 85.2041 48.4101C84.3571 49.2555 85.4308 49.9582 86.627 50.7411C87.9091 51.5801 89.332 52.5114 88.6818 53.8092C88.0984 54.9738 86.8296 54.7135 85.4718 54.4351C83.9094 54.1146 82.2292 53.77 81.3401 55.5447C80.9222 56.3788 80.5115 57.2951 80.0875 58.241C78.8535 60.9941 77.5071 63.998 75.544 65.9572C75.2316 66.269 74.7027 66.2465 74.1608 66.2234C73.5915 66.1992 73.008 66.1744 72.646 66.5357C71.9126 67.2676 72.329 68.8561 72.7475 70.4526C73.1704 72.0656 73.5954 73.6868 72.8392 74.4415C72.4983 74.7817 72.0068 74.1096 71.782 73.8024C71.7351 73.7383 71.6998 73.69 71.68 73.6702C70.9469 72.9386 70.5649 72.351 70.2227 71.8247C69.6352 70.9209 69.1649 70.1976 67.2363 69.2352C67.0033 69.119 66.1679 69.6514 65.3679 70.1612C64.8036 70.5208 64.2569 70.8692 63.9519 70.9706C62.9354 71.3088 61.997 71.46 61.1702 71.5932C58.982 71.9459 57.5762 72.1724 57.5762 75.4056C57.5762 77.0994 57.9408 80.4082 59.5082 81.1904C60.8449 81.8574 61.519 80.8155 62.232 79.7135C62.9631 78.5835 63.7351 77.3903 65.3043 77.9123C66.9613 78.4636 66.8131 79.9751 66.6622 81.5143C66.5649 82.5065 66.4665 83.5102 66.8499 84.2756C67.4085 85.3907 68.1618 85.1927 68.946 84.9866C69.6107 84.8119 70.2977 84.6314 70.9072 85.2397C71.3769 85.7085 71.044 86.2985 70.7038 86.9014C70.3483 87.5314 69.9847 88.1756 70.5207 88.7105C70.8623 89.0514 71.9058 89.4516 72.995 89.8692C74.6969 90.5219 76.5101 91.2172 75.9304 91.7957C74.3149 93.408 69.8599 89.8259 68.0143 88.3419C67.6127 88.019 67.3346 87.7955 67.2363 87.7464C66.5863 87.422 62.3564 85.6894 58.7296 84.2038C55.8637 83.0299 53.3744 82.0103 53.3257 81.9617C52.1424 80.7806 51.5383 79.0969 50.914 77.3568C50.2464 75.4963 49.5558 73.5713 48.1092 72.1276C48.09 72.1084 48.0254 72.0265 47.9306 71.9063C47.4916 71.3498 46.4049 69.9721 46.1772 70.1993C45.9153 70.4607 46.1862 71.2876 46.5009 72.2483C46.8882 73.4308 47.342 74.816 46.95 75.5984C46.8142 75.8696 40.4505 71.8804 39.8015 70.585C38.6534 68.2933 37.79 65.5064 36.9387 62.7588C35.661 58.6348 34.4107 54.5994 32.2666 52.4595C31.7212 51.9151 32.2935 51.2118 32.8496 50.5285C33.375 49.8828 33.8859 49.255 33.4258 48.7958C33.0471 48.4178 32.2828 48.404 31.5321 48.3904C30.8075 48.3772 30.0955 48.3643 29.755 48.0245C28.1298 46.4025 26.9807 44.8746 25.9355 43.4849C23.6698 40.4723 21.8921 38.1086 16.8104 36.8406C13.8235 36.0954 10.825 38.4691 8.7663 40.0989C7.63101 40.9976 6.78154 41.6701 6.37747 41.4684C4.97714 40.7697 1.14826 36.8025 0.581386 35.1052C0.276646 34.1928 0.937057 33.7339 1.55178 33.3067C2.13204 32.9035 2.67159 32.5286 2.32021 31.8272C2.1743 31.536 1.9597 31.175 1.71904 30.7702C0.800281 29.2249 -0.498305 27.0407 0.19498 25.6568C0.327018 25.3933 0.420973 24.81 0.524964 24.1644C0.698649 23.0861 0.90033 21.834 1.3542 21.6075C5.22028 19.6782 9.83344 21.0596 14.4402 22.4391C18.351 23.6101 22.2572 24.7798 25.6977 23.9214C26.4935 23.7228 32.9505 17.1498 35.9623 14.084C36.5701 13.4653 37.0376 12.9894 37.2899 12.7375C38.0879 11.9411 41.6168 12.9872 43.3103 13.4892C43.6365 13.5859 43.8946 13.6624 44.052 13.7017C44.6342 13.8469 45.263 14.017 45.9246 14.196C50.5111 15.4369 56.6775 17.1053 59.8946 13.8945C60.8241 12.9669 59.577 9.83377 58.5323 7.20915ZM64.7687 33.9532C65.4349 32.9658 66.2818 31.7106 67.2227 31.3971C68.433 32.3379 69.4327 33.2611 70.3918 34.1469C72.1303 35.7523 73.7358 37.2349 76.2207 38.4766C76.4283 38.5804 76.431 38.4129 76.4488 38.4113C76.4621 38.4101 76.4837 38.5 76.6036 38.8593C76.923 39.8171 75.5504 42.3164 74.7415 43.7891C74.5591 44.1212 74.4054 44.4012 74.3062 44.5994C74.1954 44.8209 74.2319 45.4632 74.2729 46.1852C74.352 47.5758 74.4478 49.2623 73.5404 48.8088C72.1719 48.125 71.5483 46.3977 70.9451 44.7267C70.4952 43.4805 70.0565 42.2655 69.3286 41.538C68.5235 40.7334 66.4262 40.0991 64.3133 39.46C61.5693 38.6301 58.799 37.7922 58.799 36.5632C58.799 36.542 58.794 36.5186 58.789 36.4953C58.779 36.4486 58.7689 36.402 58.799 36.3719C59.2982 35.873 60.2969 35.8021 61.311 35.73C62.3573 35.6558 63.42 35.5803 63.9681 35.0325C64.1905 34.8103 64.4602 34.4104 64.7687 33.9532Z" fill="#E1E1E1"/>
<path fill-rule="evenodd" clip-rule="evenodd" d="M70.6929 77.4279C73.7475 78.1881 73.0856 79.8096 74.7738 81.4901C74.959 81.6745 81.1203 82.33 81.1867 82.2638C82.4365 81.0198 78.184 79.381 77.8831 78.782C77.5171 78.0534 77.8952 73.8554 77.3001 73.5592C76.4997 73.1608 76.2247 76.3706 75.9398 76.6542C75.5483 77.0439 71.2466 77.2776 70.6929 77.4279Z" fill="#E1E1E1"/>
<path fill-rule="evenodd" clip-rule="evenodd" d="M8.58221 82.6656C7.91055 81.5989 3.90816 77.0056 5.55738 75.2594C6.09317 74.6921 6.60264 75.9658 6.69169 76.0601C8.19995 77.657 10.0854 80.6193 8.58221 82.6656Z" fill="#E1E1E1"/>
<path fill-rule="evenodd" clip-rule="evenodd" d="M208.92 93.8878C208.801 93.4322 209.113 92.7028 209.541 92.7028C209.969 92.7028 210.315 94.0264 209.92 94.1816C209.526 94.3368 209.04 94.3434 208.92 93.8878Z" fill="#E1E1E1"/>
</svg>
